<svg xmlns="http://www.w3.org/2000/svg" xmlns:xlink="http://www.w3.org/1999/xlink" id="Слой_1" viewBox="0 0 447.5 460.9"><script xmlns=""/><style>.st0{clip-path:url(#SVGID_2_)}.st1{fill:#e8f1fa}.st1,.st2,.st3{clip-path:url(#SVGID_4_)}.st2{fill:#e5eefe}.st3{fill:#4c59e0}.st4{opacity:.1;clip-path:url(#SVGID_6_)}.st5{opacity:.3;clip-path:url(#SVGID_8_)}.st6,.st7{clip-path:url(#SVGID_10_);fill:#444}.st7{clip-path:url(#SVGID_12_)}.st8,.st9{clip-path:url(#SVGID_14_);fill:#444}.st9{clip-path:url(#SVGID_16_)}.st10,.st11{clip-path:url(#SVGID_18_);fill:#444}.st11{clip-path:url(#SVGID_20_)}.st12{fill:#78d2ff}.st12,.st13,.st14,.st15,.st16{clip-path:url(#SVGID_6_)}.st13{fill:#f0f0fc}.st14{fill:#daf3ff}.st15{fill:#46b09e}.st16{fill:#ffd23c}.st17{fill:#31c9ac}.st17,.st18,.st19{clip-path:url(#SVGID_6_)}.st18{fill:#b7b7ce}.st19{opacity:.3}.st20{clip-path:url(#SVGID_22_)}.st21{clip-path:url(#SVGID_24_)}.st22,.st23{clip-path:url(#SVGID_6_);fill:#fff}.st23{fill:#4c59e0}.st24{fill:#e1e0fe}.st24,.st25,.st26{clip-path:url(#SVGID_6_)}.st25{fill:#cacaed}.st26{opacity:.5}.st27{clip-path:url(#SVGID_26_);fill:#627af4}.st28{clip-path:url(#SVGID_28_)}.st28,.st29,.st30{fill:#627af4}.st29{clip-path:url(#SVGID_30_)}.st30{clip-path:url(#SVGID_32_)}.st31{clip-path:url(#SVGID_34_);fill:#444}.st32,.st33{clip-path:url(#SVGID_36_);fill:#444}.st33{clip-path:url(#SVGID_38_)}.st34{clip-path:url(#SVGID_6_);fill:#b4b4db}.st35{fill:#474e5d}.st35,.st36,.st37{clip-path:url(#SVGID_6_)}.st36{fill:#8683e4}.st37{opacity:.2}.st38{clip-path:url(#SVGID_40_);fill:#fff}.st39,.st40{clip-path:url(#SVGID_42_);fill:#444}.st40{clip-path:url(#SVGID_44_)}.st41{clip-path:url(#SVGID_6_);fill:#e1e1ef}.st42{fill:#cecde8}.st42,.st43,.st44,.st45,.st46{clip-path:url(#SVGID_6_)}.st43{fill:#dbdbe6}.st44{fill:#5468da}.st45{fill:#9696cc}.st46{fill:#72d0ff}</style><defs><path id="SVGID_1_" d="M0 0h447.5v460.9H0z"/></defs><clipPath id="SVGID_2_"><use xlink:href="#SVGID_1_" overflow="visible"/></clipPath><g class="st0"><defs><path id="SVGID_3_" d="M0 0h447.5v460.9H0z"/></defs><clipPath id="SVGID_4_"><use xlink:href="#SVGID_3_" overflow="visible"/></clipPath><path class="st1" d="M346.9 58c-22.7-10.7-48.1-20.2-72.3-13.6-9.8 2.7-18.8 7.9-28.6 10.5-11.6 3.1-23.9 2.6-35.8.9-27.9-4-55.1-14-83.3-14.5-28.2-.5-59.7 12.2-69.1 38.8-4.3 12.1-3.4 25.3-3.6 38.1-.5 32.3-8.3 64.4-22.5 93.4C19 237.4.8 265.5 10.8 292.4c11.5 30.8 53.3 39.7 68.8 68.6 9 16.9 7.3 37.2 5.6 56.3-.3 3.6-.6 7.4.5 10.8 2 6.1 8.1 9.8 14 12.3 23.2 9.6 49.8 6 73.8-1.2 12.2-3.6 24.2-8.2 34.5-15.6s18.6-17.3 29.5-23.6c20-11.5 44.7-9 67.7-7.7 20.4 1.1 40.8.9 61.1-.6 13.5-1 27.2-2.7 39.5-8.4s23-16.1 26.1-29.3c3.8-16.5-5.2-33.6-17.7-45.1-6.6-6.1-14.2-11.1-20.6-17.5-21.6-21.3-27.1-54.1-26.7-84.4.3-21.3 3.4-43.8 16.6-60.4 6.4-8 14.9-14.2 20.8-22.6 32.7-45.1-27.8-52.1-57.4-66"/><path class="st2" d="M328.6 420.2c-13 0-26.3-1.1-38.8-4.8-6.7-2-13.2-4.7-19.5-7.3-4.5-1.9-9.1-3.8-13.7-5.4-16.6-5.9-34-8.4-50.3-10.5-21.4-2.7-44.1-5.1-66.7-1.6-8.2 1.3-16.5 3.4-24.6 5.4-15.2 3.9-31 7.9-46.8 6.4-8.5-.8-14.7-3.2-18.8-7.3-6.3-6.3-7.4-15.7-8.1-24.9-1.1-16.1-2-34.8.8-53.1 1.5-9.7 4.1-19.4 6.5-28.7 2.6-9.7 5.2-19.7 6.7-29.8 2-13.6 2.9-39.1-13.2-56.1-3.8-4-8.3-7.3-12.7-10.5-4.6-3.4-9.4-6.8-13.3-11.1-5.8-6.3-8.5-12.9-8-19.5 1.1-14 16.3-26.3 28.5-36.1 3.4-2.7 6.6-5.3 9.3-7.8l.3.4-.3-.4C76.6 89.7 108.4 61 147.5 44.7c33.9-14.1 83.3-19.8 120.3 6.9 6.7 4.8 12.9 10.6 18.8 16.3 4.3 4 8.7 8.2 13.3 12 15.1 12.4 33.2 21.4 52.3 25.8 4.6 1.1 9.4 1.9 14 2.7 11.6 2 23.6 4.1 33.9 10 15.9 9 27 27.2 29 47.3 1.7 17.7-3.4 37.1-14.3 54.6-3.4 5.4-7.3 10.7-11 15.8-7.6 10.2-15.4 20.8-19.1 33-3.9 12.7-3.2 26.2-2.5 39.3l3.7 68.8c.7 13.6.1 32.4-13.6 39.1-4.5 2.2-9.7 2.5-14.3 2.8-9.4.5-19.3 1.1-29.4 1.1m-164.7-32.4c14.5 0 28.8 1.6 42.5 3.4 16.4 2.1 33.9 4.7 50.6 10.6 4.7 1.7 9.3 3.6 13.8 5.5 6.3 2.6 12.7 5.3 19.4 7.3 22.1 6.5 45.3 5 67.8 3.5 4.5-.3 9.6-.6 13.9-2.7 13.1-6.4 13.7-24.8 13-38.1l-3.7-68.8c-.7-13.1-1.4-26.7 2.5-39.6 3.8-12.4 11.7-23 19.3-33.3 3.7-5.1 7.6-10.3 11-15.7 10.8-17.4 15.8-36.6 14.1-54-1.9-19.8-12.8-37.6-28.5-46.5-10.2-5.8-22.1-7.9-33.6-9.9-4.6-.8-9.4-1.6-14.1-2.7-19.2-4.4-37.5-13.4-52.7-26-4.6-3.8-9-8-13.3-12-5.9-5.6-12-11.4-18.7-16.2-36.7-26.4-85.7-20.8-119.3-6.7C109 62.1 77.3 90.8 46.6 118.5c-2.7 2.5-5.9 5.1-9.4 7.8C25.1 135.8 10.1 148 9 161.5c-.5 6.4 2.1 12.5 7.8 18.8 3.9 4.2 8.6 7.6 13.2 11 4.4 3.2 9 6.6 12.9 10.6 16.3 17.3 15.4 43.1 13.4 56.9-1.5 10.1-4.1 20.2-6.7 29.9-2.5 9.3-5 19-6.5 28.6-2.8 18.2-1.9 36.8-.8 52.9.6 9 1.7 18.2 7.8 24.2 4 4 10 6.3 18.2 7 15.7 1.4 31.3-2.5 46.5-6.4 8.1-2 16.4-4.2 24.7-5.5 8.1-1.2 16.3-1.7 24.4-1.7"/><path class="st3" d="M350 170.3c-1-.2-2-.3-3-.5l.1-1c1 .1 2 .3 3 .5l-.1 1zm-10.2 149.2l-.8-.6c1.2-1.5 2.5-3 3.9-4.5l.7.7c-1.3 1.4-2.6 2.9-3.8 4.4m7.9-8.6l-.7-.7c1.4-1.3 2.8-2.6 4.4-4l.7.8c-1.6 1.3-3 2.6-4.4 3.9m8.9-7.7l-.6-.8c1.5-1.2 3-2.4 4.6-3.6l.6.8c-1.7 1.3-3.2 2.4-4.6 3.6m9.3-7.1l-.6-.8c1.6-1.2 3.2-2.3 4.8-3.5l.6.8c-1.6 1.2-3.2 2.3-4.8 3.5m9.5-6.9l-.6-.8c1.6-1.1 3.2-2.3 4.8-3.4l.6.8c-1.6 1.1-3.2 2.3-4.8 3.4m9.5-7l-.6-.8.3-.2c1.5-1.1 2.9-2.3 4.3-3.4l.6.8c-1.4 1.2-2.9 2.3-4.3 3.4l-.3.2zm9.1-7.5l-.7-.7c1.5-1.3 2.9-2.7 4.3-4l.7.7c-1.4 1.3-2.8 2.7-4.3 4m8.4-8.3l-.7-.7c1.3-1.5 2.6-3 3.8-4.5l.8.6c-1.3 1.6-2.6 3.1-3.9 4.6m7.3-9.3l-.8-.6c1.1-1.6 2.1-3.3 3.1-5l.9.5c-1.1 1.7-2.1 3.4-3.2 5.1m5.7-10.3l-.9-.4c.8-1.8 1.5-3.6 2-5.4l1 .3c-.6 1.7-1.3 3.6-2.1 5.5m3.5-11.4l-1-.2c.3-1.9.5-3.9.6-5.8h1c-.1 2.1-.3 4.1-.6 6m-.6-11.7c-.2-1.9-.5-3.8-1-5.7l1-.2c.5 1.9.8 3.9 1 5.9h-1zm-2.7-11.3c-.7-1.8-1.5-3.6-2.4-5.3l.9-.5c.9 1.8 1.8 3.6 2.5 5.4l-1 .4zm-5.4-10.3c-1.1-1.6-2.3-3.2-3.5-4.7l.8-.6c1.3 1.5 2.5 3.1 3.6 4.7l-.9.6zm-7.4-8.9c-1.4-1.4-2.8-2.7-4.3-3.9l.6-.8c1.5 1.3 3 2.6 4.4 4l-.7.7zm-9-7.4l-.3-.2c-1.5-1-3-1.9-4.6-2.8l.5-.9c1.6.9 3.2 1.9 4.7 2.9l.3.2-.6.8zm-10.2-5.7c-1.7-.8-3.5-1.6-5.4-2.3l.4-.9c1.9.7 3.7 1.5 5.4 2.4l-.4.8zm-10.8-4.4c-1.8-.6-3.7-1.2-5.6-1.7l.3-1c1.9.5 3.8 1.1 5.6 1.7l-.3 1zm-11.3-3.1c-1.8-.4-3.8-.8-5.7-1.2l.2-1c2 .4 3.9.8 5.8 1.2l-.3 1zm-26.8 154.1l-.9-.5c.5-.9 1.1-1.7 1.6-2.5l.8.6c-.4.8-1 1.6-1.5 2.4M62.4 417.1v-1c2-.1 4-.2 5.9-.5l.1 1c-2 .2-4 .4-6 .5m-6-.2c-2-.2-4-.4-6-.8l.2-1c1.9.4 3.9.6 5.9.8l-.1 1zm18-1.4l-.2-1c1.9-.5 3.8-1 5.7-1.7l.3.9c-1.9.7-3.9 1.3-5.8 1.8m-29.9-.7c-1.9-.6-3.9-1.2-5.7-2l.4-.9c1.8.7 3.7 1.4 5.6 2l-.3.9zm41.3-3.4l-.4-.9c.8-.4 1.7-.9 2.5-1.3.9-.5 1.8-1 2.7-1.6l.5.8c-.9.6-1.8 1.1-2.7 1.6-.9.5-1.8 1-2.6 1.4m-52.5-1.3c-1.8-1-3.5-2.1-5.1-3.2l.6-.8c1.6 1.1 3.3 2.2 5 3.2l-.5.8zM96 405l-.6-.8c1.5-1.1 3-2.4 4.6-3.8l.7.8c-1.6 1.4-3.2 2.7-4.7 3.8m-72.5-1.9c-1.5-1.4-2.9-2.8-4.2-4.4l.8-.6c1.3 1.5 2.7 3 4.1 4.3l-.7.7zm81.7-5.9l-.7-.7c1.3-1.2 2.6-2.5 4.3-4.2l.7.7c-1.7 1.7-3.1 3-4.3 4.2m-89.5-3.4c-1.1-1.7-2.1-3.4-3-5.3l.9-.4c.9 1.8 1.9 3.5 3 5.2l-.9.5zm98.1-5l-.7-.7c1.4-1.4 2.9-2.8 4.3-4.2l.7.7c-1.5 1.4-2.9 2.8-4.3 4.2M10.3 383c-.7-1.9-1.3-3.8-1.8-5.8l1-.2c.5 1.9 1.1 3.8 1.7 5.7l-.9.3zm112.2-2.4l-.7-.8c.9-.8 1.8-1.6 2.8-2.4l1.8-1.5.6.8-1.8 1.5-2.7 2.4m9.4-7.3l-.5-.8c1.7-1.1 3.5-2.1 5.2-3l.5.9c-1.8.9-3.5 1.9-5.2 2.9M7.4 371.2c-.3-2-.4-4-.5-6h1c0 2 .2 4 .4 5.9l-.9.1zm135.1-3.3l-.4-.9c1.9-.7 3.9-1.4 5.8-1.8l.2 1c-1.8.4-3.7 1-5.6 1.7m27.1 0c-1.2-.6-2.6-1.2-3.9-1.6l.3-1c1.4.4 2.7 1 4 1.6l-.4 1zm-15.6-2.8l-.1-1c2.1-.2 4.1-.2 6.1 0l-.1 1c-1.9-.1-3.9-.1-5.9 0M8.2 359.3l-1-.1c.2-2 .5-4 1-6l1 .2c-.5 1.9-.8 3.9-1 5.9m2.6-11.6l-.9-.3c.7-1.9 1.5-3.7 2.4-5.5v-.1l.9.5v.1c-1 1.7-1.7 3.5-2.4 5.3m5.4-10.5l-.8-.6c1.1-1.6 2.2-3.2 3.6-4.9l.8.6c-1.4 1.7-2.5 3.3-3.6 4.9m7.4-9.4l-.7-.7c1.2-1.3 2.5-2.7 4.1-4.4l.7.7c-1.6 1.7-2.9 3.1-4.1 4.4m8.3-8.6l-.7-.7c1.4-1.4 2.8-2.9 4.1-4.3l.7.7c-1.3 1.4-2.7 2.8-4.1 4.3m8.2-8.9l-.8-.7c1.3-1.5 2.5-3.1 3.7-4.7l.8.6c-1.1 1.7-2.4 3.3-3.7 4.8m7-9.8l-.9-.5c1-1.8 1.9-3.5 2.7-5.3l.9.4c-.7 1.8-1.6 3.6-2.7 5.4m4.9-11.1l-1-.3c.6-2 .9-3.9 1.2-5.8l1 .1c-.3 2-.7 4-1.2 6m.2-11.9c-.2-2-.6-3.9-1.2-5.7l.9-.3c.7 1.9 1.1 3.9 1.3 6h-1zm204.4-71l-1-.1c.1-.9.2-1.7.3-2.6l1 .1c-.1.9-.2 1.7-.3 2.6m1.4-8.4l-1-.2c.4-2 1-3.9 1.6-5.8l1 .3c-.6 1.8-1.2 3.7-1.6 5.7m3.6-11.4l-.9-.4c.8-1.8 1.6-3.7 2.6-5.5l.9.5c-1 1.8-1.8 3.6-2.6 5.4m5.5-10.5l-.8-.5c1.1-1.7 2.2-3.4 3.4-5l.8.6c-1.2 1.5-2.3 3.2-3.4 4.9m7.2-9.5l-.7-.7c1.3-1.5 2.8-2.9 4.2-4.3l.7.7c-1.5 1.4-2.9 2.8-4.2 4.3m8.7-8.2l-.6-.8c.6-.5 1.2-.9 1.8-1.4 1-.7 2-1.4 3.1-2.1l.6.8c-1.1.7-2.1 1.4-3 2.1-.7.5-1.3 1-1.9 1.4m9.9-6.6l-.5-.9c1.7-1 3.5-2 5.2-3l.5.9c-1.7 1-3.5 2-5.2 3m10.4-6l-.5-.9c2-1.2 3.6-2.2 5.1-3.1l.5.8c-1.5 1-3.1 2-5.1 3.2M78 144.8l-1-.1c.2-1.9.3-3.9.4-6h1c-.1 2.2-.2 4.2-.4 6.1m235.4-5.6l-.6-.8c1.7-1.3 3.1-2.6 4.5-3.9l.7.7c-1.5 1.4-2.9 2.7-4.6 4m-236-6.4c0-1.8-.1-3.8-.2-6h1c.1 2.2.2 4.2.2 6h-1zm244.5-2.1l-.8-.6c.6-.8 1.1-1.5 1.6-2.3l1.5-2.7.9.4c-.5 1-1 1.9-1.5 2.8-.5.8-1.1 1.6-1.7 2.4m-245-9.9l-.4-6 1-.1.4 6-1 .1zm250.3-1l-1-.2c.5-1.9.8-3.8.9-5.8l1 .1c-.1 2-.4 4-.9 5.9m-251.1-11c-.1-2.2-.2-4.2-.2-6h1c0 1.8.1 3.8.2 6h-1zm251-1c-.2-1.9-.6-3.9-1.1-5.8l1-.3c.5 2 .9 4 1.1 6l-1 .1zm-250.2-11h-1c.1-2.1.2-4.1.4-6l1 .1c-.2 1.9-.3 3.8-.4 5.9m247.1-.3c-.8-1.8-1.8-3.5-2.9-5.1l.8-.6c1.1 1.7 2.1 3.4 3 5.3l-.9.4zm-6.6-9.8c-1.4-1.4-2.9-2.7-4.5-3.8l.6-.8c1.7 1.1 3.2 2.4 4.7 3.9l-.8.7zM78.2 85l-1-.2c.4-2 .9-4 1.5-5.9l1 .3C79 81 78.5 83 78.2 85m229.4-4.8c-1.7-.7-3.6-1.4-5.6-1.9l.2-1c2 .5 4 1.2 5.8 1.9l-.4 1zM223.7 79c-1.9 0-3.7 0-5.4-.2l.1-1c1.7.1 3.4.1 5.3.1h.6v1l-.6.1zm6.7-.2v-1c1.7-.1 3.6-.2 6-.4l.1 1c-2.5.2-4.4.3-6.1.4m-18.1-.6c-2.1-.3-4-.7-5.9-1.2l.3-1c1.8.5 3.8.9 5.8 1.2l-.2 1zm30-.2l-.1-1 .8-.1c1.7-.1 3.5-.3 5.2-.4l.1 1c-1.7.1-3.5.2-5.2.4l-.8.1zm53.9-.8c-1.9-.3-3.8-.4-5.9-.6l.1-1c2.2.1 4.1.3 6 .6l-.2 1zm-41.9 0l-.1-1 6-.3v1c-1.9.1-3.9.2-5.9.3m12-.5v-1c2-.1 4-.1 6-.1v1c-2 0-4 0-6 .1m18-.3h-6v-1h6v1zm-83.7-1.3c-1.8-.7-3.6-1.6-5.5-2.6l.5-.9c1.9 1 3.6 1.8 5.4 2.6l-.4.9zM81.7 73.7l-.9-.4c.3-.6.6-1.2.8-1.8.6-1.2 1.3-2.4 2-3.6l.8.5c-.7 1.1-1.4 2.3-2 3.5-.2.6-.5 1.2-.7 1.8M190 69.4c-1.5-.9-3-2-5-3.3l.6-.8c2 1.4 3.5 2.4 5 3.3l-.6.8zM88 63.7l-.8-.7c1.3-1.5 2.7-3 4.2-4.4l.7.7c-1.5 1.4-2.9 2.9-4.1 4.4m92-1.1c-1.8-1.2-3.2-2.1-4.5-3l-.5-.3.5-.8.5.3c1.3.9 2.7 1.8 4.5 3l-.5.8zm-10.1-6.3c-1.7-1-3.5-1.9-5.3-2.8l.4-.9c1.8.9 3.6 1.8 5.3 2.8l-.4.9zm-73.2-.7l-.6-.8c1.6-1.2 3.3-2.3 5.1-3.3l.5.9c-1.7 1-3.4 2.1-5 3.2m62.5-4.5c-1.9-.8-3.7-1.5-5.6-2.1l.3-.9c1.9.6 3.8 1.3 5.7 2.1l-.4.9zM107 49.8l-.4-.9c1.8-.8 3.7-1.5 5.7-2.1l.3 1c-1.9.5-3.8 1.2-5.6 2m40.9-2.5c-1.9-.5-3.9-.9-5.8-1.2l.2-1c2 .3 3.9.8 5.9 1.3l-.3.9zm-29.6-1.1l-.2-1c2-.4 4-.7 6-.9l.1 1c-1.9.2-3.9.5-5.9.9m17.8-.9c-2-.2-4-.3-5.9-.3v-1c2 0 4 .1 6 .3l-.1 1z"/></g><g class="st0"><defs><path id="SVGID_5_" d="M0 0h447.5v460.9H0z"/></defs><clipPath id="SVGID_6_"><use xlink:href="#SVGID_5_" overflow="visible"/></clipPath><g class="st4"><defs><path id="SVGID_7_" d="M61.8 116.3h303.4V434H61.8z"/></defs><clipPath id="SVGID_8_"><use xlink:href="#SVGID_7_" overflow="visible"/></clipPath><g class="st5"><defs><path id="SVGID_9_" d="M61.8 116.3h245.9v187.3H61.8z"/></defs><clipPath id="SVGID_10_"><use xlink:href="#SVGID_9_" overflow="visible"/></clipPath><path class="st6" d="M302.3 224.3L121.5 303c-4.7 2.1-10.6-.7-13.5-6.3l-44.6-76.9c-3.3-6.3-1.5-13.7 3.8-16L266.7 117c5.3-2.3 11.9 1.4 14.3 8.1l25.9 85.1c2.1 5.9.1 12.1-4.6 14.1"/></g><g class="st5"><defs><path id="SVGID_11_" d="M116.6 226.4h248.6v207.7H116.6z"/></defs><clipPath id="SVGID_12_"><use xlink:href="#SVGID_11_" overflow="visible"/></clipPath><path class="st7" d="M358.2 355.2l-179 77.9c-5.9 2.6-12.8-.1-15.3-6l-46.3-106.5c-2.6-5.9.1-12.8 6-15.3l179-77.9c5.9-2.6 12.8.1 15.3 6l46.3 106.5c2.6 5.9-.1 12.7-6 15.3"/></g></g><g class="st4"><defs><path id="SVGID_13_" d="M58.2 111.1h307.6v324.4H58.2z"/></defs><clipPath id="SVGID_14_"><use xlink:href="#SVGID_13_" overflow="visible"/></clipPath><path class="st8" d="M364.9 341.3l-46.3-106.5c-.2-.4-.3-.7-.5-1l-.2-.4c-2.6-5.9-9.4-8.6-15.3-6l-15.1 6.6c-.1-.3-.2-.6-.3-.8l-.1-.2c-.2-.6-.6-1.1-.9-1.6l17.1-7.4c4.8-2.1 6.8-8.2 4.7-14.2l-25.8-85.1c-.1-.2-.2-.4-.3-.7l-1.2-4.1c-2.4-6.7-9-10.4-14.5-8.1l-202.3 88c-5.4 2.4-7.2 9.8-3.9 16.1l2.1 3.7c.1.2.2.4.3.7l44.7 76.9c2.9 5.6 8.8 8.3 13.6 6.2l17-7.4c.1.4.2.8.4 1.2l.1.2c.2.4.4.9.7 1.2l-15.2 6.6c-5.9 2.6-8.6 9.4-6 15.3L163.9 427c.2.4.3.7.5 1l.2.4c2.6 5.9 9.4 8.6 15.3 6l179-77.9c5.9-2.4 8.6-9.3 6-15.2M171 283.1l-.1-.2c-.2-.4-.4-.8-.6-1.1l103.4-45-20.4 8.9c.1.6.3 1.2.5 1.8l.1.2c.1.3.3.5.4.8l-82.9 36.1c-.1-.6-.2-1.1-.4-1.5"/></g><g class="st4"><defs><path id="SVGID_15_" d="M51.7 320.2h105.7v65.1H51.7z"/></defs><clipPath id="SVGID_16_"><use xlink:href="#SVGID_15_" overflow="visible"/></clipPath><path class="st9" d="M143.4 347.6c.1-.8.1-1.7.1-2.6 0-13.7-11.1-24.8-24.8-24.8-5.9 0-11.2 2-15.5 5.4-2.1-1.5-4.6-2.3-7.3-2.3-5.8 0-10.7 3.9-12.2 9.2h-.9c-8.6 0-15.7 6.5-16.5 14.9-8.4 2.1-14.6 9.6-14.6 18.6 0 10.6 8.6 19.2 19.2 19.2h67.2c10.6 0 19.2-8.6 19.2-19.2.1-8.7-5.9-16.1-13.9-18.4"/></g><g class="st4"><defs><path id="SVGID_17_" d="M169.2 48.7h82.3v91.5h-82.3z"/></defs><clipPath id="SVGID_18_"><use xlink:href="#SVGID_17_" overflow="visible"/></clipPath><path class="st10" d="M251.5 76.7c-.3-8.4-4.2-16.5-11.4-22s-16.1-7.1-24.3-5.1c-6.3 1.5-12.1 5.1-16.4 10.6-8.4 11.1-7.7 26.2 1 36.4l-7.3 9.5-21.2 7.8c-2.3.8-3.4 3.3-2.6 5.6s3.3 3.4 5.6 2.6l13.1-4.8-2.8 3.7c-1.3 1.7-1 4.2.8 5.5 1.7 1.3 4.2 1 5.5-.8l2.2-2.9-1.1 12.7c-.2 2.4 1.6 4.5 4 4.7 2.4.2 4.5-1.6 4.7-4l1.9-22.9h-.1l7.1-9.3c12.1 5.7 26.9 2.3 35.3-8.7 4.4-5.6 6.3-12.2 6-18.6"/></g><g class="st4"><defs><path id="SVGID_19_" d="M28.5 84.3h124.2v123H28.5z"/></defs><clipPath id="SVGID_20_"><use xlink:href="#SVGID_19_" overflow="visible"/></clipPath><path class="st11" d="M99.6 84.3l-71.1 63.6c8.7 9.8 43.2 48.3 53.1 59.4 0 0 58.8-52.6 71.1-63.6 0 0-43.1-48.3-53.1-59.4"/></g><path class="st12" d="M143.4 344.3c.1-.8.1-1.7.1-2.6 0-13.7-11.1-24.8-24.8-24.8-5.9 0-11.2 2-15.5 5.4-2.1-1.5-4.6-2.3-7.3-2.3-5.8 0-10.7 3.9-12.2 9.2h-.9c-8.6 0-15.7 6.5-16.5 14.9-8.4 2.1-14.6 9.6-14.6 18.6 0 10.6 8.6 19.2 19.2 19.2h67.2c10.6 0 19.2-8.6 19.2-19.2.1-8.7-5.9-16.1-13.9-18.4"/><path class="st13" d="M93 84.3c9.9 11.1 53.1 59.4 53.1 59.4-12.3 11-71.1 63.6-71.1 63.6-9.9-11.1-44.4-49.6-53.1-59.4L93 84.3z"/><path class="st14" d="M93.2 87.1c9.4 10.5 50.3 56.3 50.3 56.3-11.8 10.5-68.4 61.2-68.4 61.2-9.4-10.5-42.1-47.1-50.3-56.3l68.4-61.2z"/><path class="st15" d="M75.1 204.5C61.8 189.6 48.7 175 48.7 175c.5-.5 1.1-1 1.6-1.5 22.7-20.2 52.9-23.6 68.3-7.8l-43.5 38.8z"/><path class="st16" d="M101.6 105.1c4.2 4.6 3.8 11.8-.9 15.9-4.6 4.2-11.8 3.7-15.9-.9s-3.8-11.8.9-15.9c4.7-4.2 11.8-3.7 15.9.9"/><path class="st17" d="M85.1 195.7s-2.9-55.8 34.7-79l23.9 26.7-58.6 52.3z"/><path class="st18" d="M367.1 348.1l-179 77.9c-5.9 2.6-12.8-.1-15.3-6l-46.3-106.5c-2.6-5.9.1-12.8 6-15.3l179-77.9c5.9-2.6 12.8.1 15.3 6l46.3 106.5c2.6 5.9-.1 12.7-6 15.3"/><g class="st19"><defs><path id="SVGID_21_" d="M70 107.7h245.9V295H70z"/></defs><clipPath id="SVGID_22_"><use xlink:href="#SVGID_21_" overflow="visible"/></clipPath><path class="st20" d="M310.5 215.7l-180.7 78.6c-4.7 2.1-10.6-.7-13.5-6.3l-44.6-76.9c-3.3-6.3-1.5-13.7 3.8-16l199.4-86.8c5.3-2.3 11.9 1.4 14.3 8.1l25.9 85.1c2.1 6 .1 12.2-4.6 14.2"/></g><g class="st19"><defs><path id="SVGID_23_" d="M124.8 217.8h248.6v207.7H124.8z"/></defs><clipPath id="SVGID_24_"><use xlink:href="#SVGID_23_" overflow="visible"/></clipPath><path class="st21" d="M366.4 346.6l-179 77.9c-5.9 2.6-12.8-.1-15.3-6L125.7 312c-2.6-5.9.1-12.8 6-15.3l179-77.9c5.9-2.6 12.8.1 15.3 6l46.3 106.5c2.7 5.9 0 12.8-5.9 15.3"/></g><path class="st18" d="M309.8 210.6l-183.4 79.8c-4.8 2.1-10.7-.6-13.6-6.2l-44.7-76.9c-3.3-6.3-1.5-13.7 3.9-16.1l202.3-88c5.4-2.4 12.1 1.4 14.5 8.1l25.8 85.1c2.1 6 0 12.1-4.8 14.2"/><path class="st22" d="M311.4 215.3l-182.6 79.4c-4.8 2.1-10.7-.6-13.6-6.2l-44.7-76.9c-3.3-6.3-1.5-13.7 3.9-16.1L275.9 108c5.4-2.3 12 1.4 14.4 8.1l25.8 85.1c2.1 5.9.1 12.1-4.7 14.1"/><path class="st23" d="M125 287c-.3.1-1.8-.3-2.8-2.2l-.1-.2-44.7-76.8c-.7-1.4-.7-2.7-.4-3.5.1-.3.3-.6.4-.6l202.3-88c.1-.1.4 0 .8.1.7.3 1.7 1.2 2.3 2.6l25.7 85.1.1.2c.7 2 0 3.4-.3 3.5L125 287z"/><path class="st22" d="M366.4 346.6l-179 77.9c-5.9 2.6-12.8-.1-15.3-6L125.7 312c-2.6-5.9.1-12.8 6-15.3l179-77.9c5.9-2.6 12.8.1 15.3 6l46.3 106.5c2.7 5.9 0 12.8-5.9 15.3"/><path transform="rotate(-23.517 240.406 302.06)" class="st24" d="M142.8 267.4h195.1v69.2H142.8z"/><path class="st25" d="M145 317.7l5.7-2.5c.7-.3 1-1.1.7-1.7l-2.5-5.7c-.3-.7-1.1-1-1.7-.7l-5.7 2.5c-.7.3-1 1.1-.7 1.7l2.5 5.7c.2.7 1 1 1.7.7m5 11.6l5.7-2.5c.7-.3 1-1.1.7-1.7l-2.5-5.7c-.3-.7-1.1-1-1.7-.7l-5.7 2.5c-.7.3-1 1.1-.7 1.7l2.5 5.7c.3.7 1 1 1.7.7m9.7-4.2l5.7-2.5c.7-.3 1-1.1.7-1.7l-2.5-5.7c-.3-.7-1.1-1-1.7-.7l-5.7 2.5c-.7.3-1 1.1-.7 1.7l2.5 5.7c.3.7 1 1 1.7.7m15.6 3.7l-2.5-5.7c-.3-.7-1.1-1-1.7-.7l-5.7 2.5c-.7.3-1 1.1-.7 1.7l2.5 5.7c.3.7 1.1 1 1.7.7l5.7-2.5c.7-.3 1-1.1.7-1.7m-20.9 10.5l10.6-4.6c.7-.3 1-1.1.7-1.7l-2.5-5.7c-.3-.7-1.1-1-1.7-.7l-10.6 4.6c-.7.3-1 1.1-.7 1.7l2.5 5.7c.2.7 1 1 1.7.7m24.2-10.5l5.7-2.5c.7-.3 1-1.1.7-1.7l-2.5-5.7c-.3-.7-1.1-1-1.7-.7l-5.7 2.5c-.7.3-1 1.1-.7 1.7l2.5 5.7c.3.6 1.1.9 1.7.7m16.2-8.5l-2.5-5.7c-.3-.7-1.1-1-1.7-.7l-5.7 2.5c-.7.3-1 1.1-.7 1.7l2.5 5.7c.3.7 1.1 1 1.7.7l5.7-2.5c.7-.3 1-1 .7-1.7m3.3 0l5.7-2.5c.7-.3 1-1.1.7-1.7l-2.5-5.7c-.3-.7-1.1-1-1.7-.7l-5.7 2.5c-.7.3-1 1.1-.7 1.7l2.5 5.7c.3.7 1 1 1.7.7m9.7-4.3l5.7-2.5c.7-.3 1-1.1.7-1.7l-2.5-5.7c-.3-.7-1.1-1-1.7-.7l-5.7 2.5c-.7.3-1 1.1-.7 1.7l2.5 5.7c.3.7 1.1 1 1.7.7m5.6-10.6l2.5 5.7c.3.7 1.1 1 1.7.7l5.7-2.5c.7-.3 1-1.1.7-1.7l-2.5-5.7c-.3-.7-1.1-1-1.7-.7l-5.7 2.5c-.7.3-1 1-.7 1.7m9.7-4.2l2.5 5.7c.3.7 1.1 1 1.7.7l5.7-2.5c.7-.3 1-1.1.7-1.7l-2.5-5.7c-.3-.7-1.1-1-1.7-.7l-5.7 2.5c-.7.2-1 1-.7 1.7m9.7-4.3l2.5 5.7c.3.7 1.1 1 1.7.7l5.7-2.5c.7-.3 1-1.1.7-1.7l-2.5-5.7c-.3-.7-1.1-1-1.7-.7l-5.7 2.5c-.7.3-1 1.1-.7 1.7m9.8-4.2l2.5 5.7c.3.7 1.1 1 1.7.7l5.7-2.5c.7-.3 1-1.1.7-1.7l-2.5-5.7c-.3-.7-1.1-1-1.7-.7l-5.7 2.5c-.7.3-1 1-.7 1.7m20.3-2.1l-2.5-5.7c-.3-.7-1.1-1-1.7-.7l-5.7 2.5c-.7.3-1 1.1-.7 1.7l2.5 5.7c.3.7 1.1 1 1.7.7l5.7-2.5c.7-.2 1-1 .7-1.7m3.4 0l5.7-2.5c.7-.3 1-1.1.7-1.7l-2.5-5.7c-.3-.7-1.1-1-1.7-.7l-5.7 2.5c-.7.3-1 1.1-.7 1.7l2.5 5.7c.2.7 1 1 1.7.7m16.1-8.4l-2.5-5.7c-.3-.7-1.1-1-1.7-.7l-5.7 2.5c-.7.3-1 1.1-.7 1.7l2.5 5.7c.3.7 1.1 1 1.7.7l5.7-2.5c.7-.3 1-1.1.7-1.7m-113 38.6l5.7-2.5c.7-.3 1-1.1.7-1.7l-2.5-5.7c-.3-.7-1.1-1-1.7-.7l-5.7 2.5c-.7.3-1 1.1-.7 1.7l2.5 5.7c.3.7 1.1 1 1.7.7m9.7-4.2l5.7-2.5c.7-.3 1-1.1.7-1.7l-2.5-5.7c-.3-.7-1.1-1-1.7-.7l-5.7 2.5c-.7.3-1 1.1-.7 1.7l2.5 5.7c.3.7 1.1 1 1.7.7m9.7-4.2l5.7-2.5c.7-.3 1-1.1.7-1.7l-2.5-5.7c-.3-.7-1.1-1-1.7-.7l-5.7 2.5c-.7.3-1 1.1-.7 1.7l2.5 5.7c.3.7 1.1 1 1.7.7m9.7-4.2l5.7-2.5c.7-.3 1-1.1.7-1.7l-2.5-5.7c-.3-.7-1.1-1-1.7-.7L195 300c-.7.3-1 1.1-.7 1.7l2.5 5.7c.3.8 1.1 1.1 1.7.8m-34.1 1l5.7-2.5c.7-.3 1-1.1.7-1.7l-2.5-5.7c-.3-.7-1.1-1-1.7-.7l-5.7 2.5c-.7.3-1 1.1-.7 1.7l2.5 5.7c.2.7 1 1 1.7.7m9.7-4.2l5.7-2.5c.7-.3 1-1.1.7-1.7l-2.5-5.7c-.3-.7-1.1-1-1.7-.7l-5.7 2.5c-.7.3-1 1.1-.7 1.7l2.5 5.7c.2.7 1 1 1.7.7m9.7-4.2l5.7-2.5c.7-.3 1-1.1.7-1.7l-2.5-5.7c-.3-.7-1.1-1-1.7-.7l-5.7 2.5c-.7.3-1 1.1-.7 1.7l2.5 5.7c.2.7 1 1 1.7.7m9.7-4.2l5.7-2.5c.7-.3 1-1.1.7-1.7l-2.5-5.7c-.3-.7-1.1-1-1.7-.7l-5.7 2.5c-.7.3-1 1.1-.7 1.7l2.5 5.7c.2.7 1 1 1.7.7m14.7 7.4l5.7-2.5c.7-.3 1-1.1.7-1.7l-2.5-5.7c-.3-.7-1.1-1-1.7-.7l-5.7 2.5c-.7.3-1 1.1-.7 1.7l2.5 5.7c.3.6 1.1.9 1.7.7m11.9-14.9l-5.7 2.5c-.7.3-1 1.1-.7 1.7l2.5 5.7c.3.7 1.1 1 1.7.7l5.7-2.5c.7-.3 1-1.1.7-1.7l-2.5-5.7c-.2-.7-1-1-1.7-.7m9.7-4.2l-5.7 2.5c-.7.3-1 1.1-.7 1.7l2.5 5.7c.3.7 1.1 1 1.7.7l5.7-2.5c.7-.3 1-1.1.7-1.7l-2.5-5.7c-.2-.7-1-1-1.7-.7m9.7-4.2l-5.7 2.5c-.7.3-1 1.1-.7 1.7l2.5 5.7c.3.7 1.1 1 1.7.7l5.7-2.5c.7-.3 1-1.1.7-1.7l-2.5-5.7c-.2-.7-1-1-1.7-.7m3.3 0l2.5 5.7c.3.7 1.1 1 1.7.7l5.7-2.5c.7-.3 1-1.1.7-1.7l-2.5-5.7c-.3-.7-1.1-1-1.7-.7l-5.7 2.5c-.6.2-1 1-.7 1.7m14 2.1l5.7-2.5c.7-.3 1-1.1.7-1.7l-2.5-5.7c-.3-.7-1.1-1-1.7-.7l-5.7 2.5c-.7.3-1 1.1-.7 1.7l2.5 5.7c.2.7 1 1 1.7.7m9.7-4.2l5.7-2.5c.7-.3 1-1.1.7-1.7l-2.5-5.7c-.3-.7-1.1-1-1.7-.7l-5.7 2.5c-.7.3-1 1.1-.7 1.7l2.5 5.7c.2.7 1 1 1.7.7m9.7-4.2l5.7-2.5c.7-.3 1-1.1.7-1.7l-2.5-5.7c-.3-.7-1.1-1-1.7-.7l-5.7 2.5c-.7.3-1 1.1-.7 1.7l2.5 5.7c.2.7 1 1 1.7.7m11.9-14.9l-5.7 2.5c-.7.3-1 1.1-.7 1.7l2.5 5.7c.3.7 1.1 1 1.7.7l5.7-2.5c.7-.3 1-1.1.7-1.7l-2.5-5.7c-.3-.6-1.1-.9-1.7-.7m10.9-4.7l-5.7 2.5c-.7.3-1 1.1-.7 1.7l2.5 5.7c.3.7 1.1 1 1.7.7l5.7-2.5c.7-.3 1-1.1.7-1.7l-2.5-5.7c-.3-.7-1-1-1.7-.7m9.7-4.2l-5.7 2.5c-.7.3-1 1.1-.7 1.7l2.5 5.7c.3.7 1.1 1 1.7.7l5.7-2.5c.7-.3 1-1.1.7-1.7l-2.5-5.7c-.3-.7-1-1-1.7-.7m9.7-4.3l-5.7 2.5c-.7.3-1 1.1-.7 1.7l2.5 5.7c.3.7 1.1 1 1.7.7l5.7-2.5c.7-.3 1-1.1.7-1.7l-2.5-5.7c-.2-.6-1-1-1.7-.7m-15 18.5l-5.7 2.5c-.7.3-1 1.1-.7 1.7l2.5 5.7c.3.7 1.1 1 1.7.7l5.7-2.5c.7-.3 1-1.1.7-1.7l-2.5-5.7c-.3-.7-1.1-1-1.7-.7m9.7-4.2l-5.7 2.5c-.7.3-1 1.1-.7 1.7l2.5 5.7c.3.7 1.1 1 1.7.7l5.7-2.5c.7-.3 1-1.1.7-1.7l-2.5-5.7c-.3-.7-1.1-1-1.7-.7m9.7-4.2l-5.7 2.5c-.7.3-1 1.1-.7 1.7l2.5 5.7c.3.7 1.1 1 1.7.7l5.7-2.5c.7-.3 1-1.1.7-1.7l-2.5-5.7c-.3-.7-1.1-1-1.7-.7m-15.1 18.4l-5.7 2.5c-.7.3-1 1.1-.7 1.7l2.5 5.7c.3.7 1.1 1 1.7.7l5.7-2.5c.7-.3 1-1.1.7-1.7l-2.5-5.7c-.2-.7-1-1-1.7-.7m9.7-4.2l-5.7 2.5c-.7.3-1 1.1-.7 1.7l2.5 5.7c.3.7 1.1 1 1.7.7l5.7-2.5c.7-.3 1-1.1.7-1.7l-2.5-5.7c-.2-.7-1-1-1.7-.7m9.7-4.2l-5.7 2.5c-.7.3-1 1.1-.7 1.7l2.5 5.7c.3.7 1.1 1 1.7.7l5.7-2.5c.7-.3 1-1.1.7-1.7l-2.5-5.7c-.2-.7-1-1-1.7-.7m-10.7 28.5l-5.7 2.5c-.7.3-1 1.1-.7 1.7l2.5 5.7c.3.7 1.1 1 1.7.7l5.7-2.5c.7-.3 1-1.1.7-1.7l-2.5-5.7c-.2-.7-1-1-1.7-.7m9.8-4.3l-5.7 2.5c-.7.3-1 1.1-.7 1.7l2.5 5.7c.3.7 1.1 1 1.7.7l5.7-2.5c.7-.3 1-1.1.7-1.7l-2.5-5.7c-.3-.6-1.1-.9-1.7-.7m9.7-4.2l-5.7 2.5c-.7.3-1 1.1-.7 1.7l2.5 5.7c.3.7 1.1 1 1.7.7l5.7-2.5c.7-.3 1-1.1.7-1.7l-2.5-5.7c-.3-.7-1.1-1-1.7-.7m-128.3 4l5.7-2.5c.7-.3 1-1.1.7-1.7l-2.5-5.7c-.3-.7-1.1-1-1.7-.7l-5.7 2.5c-.7.3-1 1.1-.7 1.7l2.5 5.7c.3.7 1 1 1.7.7m10-4.3l5.7-2.5c.7-.3 1-1.1.7-1.7l-2.5-5.7c-.3-.7-1.1-1-1.7-.7l-5.7 2.5c-.7.3-1 1.1-.7 1.7l2.5 5.7c.3.7 1 1 1.7.7m10-4.4l5.7-2.5c.7-.3 1-1.1.7-1.7l-2.5-5.7c-.3-.7-1.1-1-1.7-.7l-5.7 2.5c-.7.3-1 1.1-.7 1.7l2.5 5.7c.2.7 1 1 1.7.7m10-4.3l5.7-2.5c.7-.3 1-1.1.7-1.7l-2.5-5.7c-.3-.7-1.1-1-1.7-.7l-5.7 2.5c-.7.3-1 1.1-.7 1.7l2.5 5.7c.2.7 1 1 1.7.7m14.1-6.2l5.7-2.5c.7-.3 1-1.1.7-1.7l-2.5-5.7c-.3-.7-1.1-1-1.7-.7l-5.7 2.5c-.7.3-1 1.1-.7 1.7l2.5 5.7c.3.7 1 1 1.7.7m9.7-4.2l5.7-2.5c.7-.3 1-1.1.7-1.7l-2.5-5.7c-.3-.7-1.1-1-1.7-.7l-5.7 2.5c-.7.3-1 1.1-.7 1.7l2.5 5.7c.3.7 1 1 1.7.7m9.7-4.2l5.7-2.5c.7-.3 1-1.1.7-1.7l-2.5-5.7c-.3-.7-1.1-1-1.7-.7l-5.7 2.5c-.7.3-1 1.1-.7 1.7l2.5 5.7c.3.7 1.1 1 1.7.7m11.9-14.9l-5.7 2.5c-.7.3-1 1.1-.7 1.7l2.5 5.7c.3.7 1.1 1 1.7.7l5.7-2.5c.7-.3 1-1.1.7-1.7l-2.5-5.7c-.3-.6-1-1-1.7-.7m11-4.7l-5.7 2.5c-.7.3-1 1.1-.7 1.7l2.5 5.7c.3.7 1.1 1 1.7.7l5.7-2.5c.7-.3 1-1.1.7-1.7l-2.5-5.7c-.3-.7-1.1-1-1.7-.7m9.7-4.2l-5.7 2.5c-.7.3-1 1.1-.7 1.7l2.5 5.7c.3.7 1.1 1 1.7.7l5.7-2.5c.7-.3 1-1.1.7-1.7l-2.5-5.7c-.3-.7-1.1-1-1.7-.7m9.7-4.3l-5.7 2.5c-.7.3-1 1.1-.7 1.7l2.5 5.7c.3.7 1.1 1 1.7.7l5.7-2.5c.7-.3 1-1.1.7-1.7l-2.5-5.7c-.3-.7-1.1-1-1.7-.7M176.1 341.8l5.7-2.5c.7-.3 1-1.1.7-1.7l-2.5-5.7c-.3-.7-1.1-1-1.7-.7l-5.7 2.5c-.7.3-1 1.1-.7 1.7l2.5 5.7c.3.7 1 1 1.7.7m-17.4 7.5l13.4-5.8c.7-.3 1-1.1.7-1.7l-2.5-5.7c-.3-.7-1.1-1-1.7-.7l-13.4 5.8c-.7.3-1 1.1-.7 1.7l2.5 5.7c.3.7 1.1 1 1.7.7m33.5-16l-2.5-5.7c-.3-.7-1.1-1-1.7-.7l-5.7 2.5c-.7.3-1 1.1-.7 1.7l2.5 5.7c.3.7 1.1 1 1.7.7l5.7-2.5c.7-.2 1-1 .7-1.7m3.4 0l5.7-2.5c.7-.3 1-1.1.7-1.7l-2.5-5.7c-.3-.7-1.1-1-1.7-.7l-5.7 2.5c-.7.3-1 1.1-.7 1.7l2.5 5.7c.2.7 1 1 1.7.7m16.1-8.4l-2.5-5.7c-.3-.7-1.1-1-1.7-.7l-5.7 2.5c-.7.3-1 1.1-.7 1.7l2.5 5.7c.3.7 1.1 1 1.7.7l5.7-2.5c.7-.3 1-1.1.7-1.7m9.7-4.3l-2.5-5.7c-.3-.7-1.1-1-1.7-.7l-5.7 2.5c-.7.3-1 1.1-.7 1.7l2.5 5.7c.3.7 1.1 1 1.7.7l5.7-2.5c.7-.2 1-1 .7-1.7m9.8-4.2l-2.5-5.7c-.3-.7-1.1-1-1.7-.7l-5.7 2.5c-.7.3-1 1.1-.7 1.7l2.5 5.7c.3.7 1.1 1 1.7.7l5.7-2.5c.7-.3 1-1.1.7-1.7m9.7-4.3l-2.5-5.7c-.3-.7-1.1-1-1.7-.7l-5.7 2.5c-.7.3-1 1.1-.7 1.7l2.5 5.7c.3.7 1.1 1 1.7.7l5.7-2.5c.7-.2 1-1 .7-1.7m9.8-4.2l-2.5-5.7c-.3-.7-1.1-1-1.7-.7l-5.7 2.5c-.7.3-1 1.1-.7 1.7l2.5 5.7c.3.7 1.1 1 1.7.7l5.7-2.5c.6-.3.9-1 .7-1.7m9.7-4.2l-2.5-5.7c-.3-.7-1.1-1-1.7-.7l-5.7 2.5c-.7.3-1 1.1-.7 1.7l2.5 5.7c.3.7 1.1 1 1.7.7l5.7-2.5c.7-.3 1-1.1.7-1.7m3.3 0l5.7-2.5c.7-.3 1-1.1.7-1.7l-2.5-5.7c-.3-.7-1.1-1-1.7-.7l-5.7 2.5c-.7.3-1 1.1-.7 1.7l2.5 5.7c.3.6 1.1.9 1.7.7m16.2-8.5l-2.5-5.7c-.3-.7-1.1-1-1.7-.7l-5.7 2.5c-.7.3-1 1.1-.7 1.7l2.5 5.7c.3.7 1.1 1 1.7.7l5.7-2.5c.6-.3 1-1 .7-1.7M184.5 350l5.7-2.5c.7-.3 1-1.1.7-1.7l-2.5-5.7c-.3-.7-1.1-1-1.7-.7l-5.7 2.5c-.7.3-1 1.1-.7 1.7l2.5 5.7c.3.7 1.1 1 1.7.7m-21.4 9.4l17.4-7.6c.7-.3 1-1.1.7-1.7l-2.5-5.7c-.3-.7-1.1-1-1.7-.7l-17.4 7.6c-.7.3-1 1.1-.7 1.7l2.5 5.7c.2.6 1 1 1.7.7m37.6-17.8l-2.5-5.7c-.3-.7-1.1-1-1.7-.7l-5.7 2.5c-.7.3-1 1.1-.7 1.7l2.5 5.7c.3.7 1.1 1 1.7.7l5.7-2.5c.6-.3 1-1.1.7-1.7m-2.4 4.7l-8.5 3.7c-.7.3-1 1.1-.7 1.7l2.5 5.7c.3.7 1.1 1 1.7.7l8.5-3.7c.7-.3 1-1.1.7-1.7L200 347c-.2-.7-1-1-1.7-.7m57.9-25.2l-53.9 23.4c-.7.3-1 1.1-.7 1.7l2.5 5.7c.3.7 1.1 1 1.7.7l53.9-23.4c.7-.3 1-1.1.7-1.7l-2.5-5.7c-.3-.7-1.1-1-1.7-.7M204 341.6l5.7-2.5c.7-.3 1-1.1.7-1.7l-2.5-5.7c-.3-.7-1.1-1-1.7-.7l-5.7 2.5c-.7.3-1 1.1-.7 1.7l2.5 5.7c.2.7 1 1 1.7.7m9.7-4.3l5.7-2.5c.7-.3 1-1.1.7-1.7l-2.5-5.7c-.3-.7-1.1-1-1.7-.7l-5.7 2.5c-.7.3-1 1.1-.7 1.7l2.5 5.7c.3.7 1 1 1.7.7m9.7-4.2l5.7-2.5c.7-.3 1-1.1.7-1.7l-2.5-5.7c-.3-.7-1.1-1-1.7-.7l-5.7 2.5c-.7.3-1 1.1-.7 1.7l2.5 5.7c.3.7 1.1 1 1.7.7m9.7-4.2l5.7-2.5c.7-.3 1-1.1.7-1.7L237 319c-.3-.7-1.1-1-1.7-.7l-5.7 2.5c-.7.3-1 1.1-.7 1.7l2.5 5.7c.3.7 1.1 1 1.7.7m9.8-4.3l5.7-2.5c.7-.3 1-1.1.7-1.7l-2.5-5.7c-.3-.7-1.1-1-1.7-.7l-5.7 2.5c-.7.3-1 1.1-.7 1.7l2.5 5.7c.2.7 1 1 1.7.7m9.7-4.2l5.7-2.5c.7-.3 1-1.1.7-1.7l-2.5-5.7c-.3-.7-1.1-1-1.7-.7l-5.7 2.5c-.7.3-1 1.1-.7 1.7l2.5 5.7c.2.7 1 1 1.7.7m11.9-14.8l-5.7 2.5c-.7.3-1 1.1-.7 1.7l2.5 5.7c.3.7 1.1 1 1.7.7l5.7-2.5c.7-.3 1-1.1.7-1.7l-2.5-5.7c-.3-.7-1-1-1.7-.7m3.8 10.2l-8.1 3.5c-.7.3-1 1.1-.7 1.7l2.5 5.7c.3.7 1.1 1 1.7.7l8.1-3.5c.7-.3 1-1.1.7-1.7l-2.5-5.7c-.3-.6-1.1-.9-1.7-.7m12-5.2l-8.1 3.5c-.7.3-1 1.1-.7 1.7l2.5 5.7c.3.7 1.1 1 1.7.7l8.1-3.5c.7-.3 1-1.1.7-1.7l-2.5-5.7c-.2-.7-1-1-1.7-.7m-94.5 41.1l-8.1 3.5c-.7.3-1 1.1-.7 1.7l2.5 5.7c.3.7 1.1 1 1.7.7l8.1-3.5c.7-.3 1-1.1.7-1.7l-2.5-5.7c-.2-.7-1-1-1.7-.7m-12 5.3l-9.8 4.3c-.7.3-1 1.1-.7 1.7l2.5 5.7c.3.7 1.1 1 1.7.7l9.8-4.3c.7-.3 1-1.1.7-1.7l-2.5-5.7c-.3-.7-1.1-1-1.7-.7m118.6-51.6l-8.1 3.5c-.7.3-1 1.1-.7 1.7l2.5 5.7c.3.7 1.1 1 1.7.7l8.1-3.5c.7-.3 1-1.1.7-1.7l-2.5-5.7c-.3-.7-1.1-1-1.7-.7m13.1-5.8l-9.2 4c-.7.3-1 1.1-.7 1.7l2.5 5.7c.3.7 1.1 1 1.7.7l9.2-4c.7-.3 1-1.1.7-1.7l-2.5-5.7c-.3-.7-1-1-1.7-.7M272 312l5.7-2.5c.7-.3 1-1.1.7-1.7l-2.5-5.7c-.3-.7-1.1-1-1.7-.7l-5.7 2.5c-.7.3-1 1.1-.7 1.7l2.5 5.7c.3.6 1.1.9 1.7.7m49.8-31.4l-5.7 2.5c-.7.3-1 1.1-.7 1.7l2.5 5.7c.3.7 1.1 1 1.7.7l5.7-2.5c.7-.3 1-1.1.7-1.7l-2.5-5.7c-.3-.7-1-1-1.7-.7m-20.7 9l-22.8 9.9c-.7.3-1 1.1-.7 1.7l2.5 5.7c.3.7 1.1 1 1.7.7l22.8-9.9c.7-.3 1-1.1.7-1.7l-2.5-5.7c-.2-.7-1-1-1.7-.7"/><path class="st25" d="M292.5 269.6l-10.3 4.5c-.6.3-.9 1-.7 1.7l3.1 7.1.2.5c.3.7 0 1.4-.7 1.7l-.6.3-3.8 1.6c-.7.3-1 1.1-.7 1.7l2.5 5.7c.3.7 1.1 1 1.7.7l17-7.4c.7-.3 1-1.1.7-1.7l-6.9-15.8c-.1-.6-.9-.9-1.5-.6m-113.3 4.9l-.1-.2c-.2-.4-.4-.8-.6-1.1l-32.7 14.2c.1.4.2.8.4 1.2l.1.2c.2.4.4.9.7 1.2l32.7-14.2c-.2-.4-.3-.9-.5-1.3m82.8-35.7l.1.2c.1.3.3.5.4.8l33.2-14.4c-.1-.3-.2-.6-.3-.8l-.1-.2c-.2-.6-.6-1.1-.9-1.6l-32.8 14.3c0 .5.1 1.1.4 1.7"/><path class="st24" d="M300.3 365.7l-53.7 23.4c-4.5 2-9.8-.1-11.8-4.6l-8.9-20.5c-2-4.5.1-9.8 4.6-11.8l53.7-23.4c4.5-2 9.8.1 11.8 4.6l8.9 20.5c2 4.6-.1 9.9-4.6 11.8"/><g class="st26"><defs><path id="SVGID_25_" d="M133 160.4h46.6v122.2H133z"/></defs><clipPath id="SVGID_26_"><use xlink:href="#SVGID_25_" overflow="visible"/></clipPath><path class="st27" d="M177.2 160.4l2.3 102.9-44.2 19.2-2.3-102.9z"/></g><g class="st26"><defs><path id="SVGID_27_" d="M190.2 148.8h16v108.9h-16z"/></defs><clipPath id="SVGID_28_"><use xlink:href="#SVGID_27_" overflow="visible"/></clipPath><path class="st28" d="M203.8 148.8l2.4 102.9-13.7 5.9-2.3-102.9z"/></g><g class="st26"><defs><path id="SVGID_29_" d="M226.6 119.6h46.6v122.2h-46.6z"/></defs><clipPath id="SVGID_30_"><use xlink:href="#SVGID_29_" overflow="visible"/></clipPath><path class="st29" d="M270.8 119.6l2.3 103-44.2 19.2-2.3-102.9z"/></g><g class="st26"><defs><path id="SVGID_31_" d="M284 123.1h15.8v93.8H284z"/></defs><clipPath id="SVGID_32_"><use xlink:href="#SVGID_31_" overflow="visible"/></clipPath><path class="st30" d="M284 123.1l14.9 49.3.9 38.6-13.7 5.9z"/></g><g class="st4"><defs><path id="SVGID_33_" d="M309.6 123.7h76.8v114.1h-76.8z"/></defs><clipPath id="SVGID_34_"><use xlink:href="#SVGID_33_" overflow="visible"/></clipPath><path class="st31" d="M381.2 134.8l-34-10.8c-3.9-1.2-8 .9-9.2 4.8l-28 88.6c-1.2 3.9.9 8 4.8 9.2l34 10.8c3.9 1.2 8-.9 9.2-4.8l28-88.6c1.2-3.9-.9-8-4.8-9.2"/></g><g class="st4"><defs><path id="SVGID_35_" d="M143.7 391.8h67v45.9h-67z"/></defs><clipPath id="SVGID_36_"><use xlink:href="#SVGID_35_" overflow="visible"/></clipPath><path class="st32" d="M207.9 424.4c-.3-.1-.5-.2-.8-.3l1.2-2.3c1.1-2.1.2-4.7-1.9-5.8l-40.3-20.2.2-.3-1.5-.8-1.3 2.5-10.5-5.3c-.7-.3-1.5-.1-1.9.6l-7.2 14.4c-.3.7-.1 1.5.6 1.9 0 0 4.9 2.4 10.5 5.3l-1.2 2.4 1.5.8.2-.3 40.3 20.2c2.1 1.1 4.7.2 5.8-1.9l1.2-2.3c.2.2.5.3.7.4 2.5 1.3 5.5.2 6.8-2.3s.1-5.5-2.4-6.7m.5 5.9c-.8 1.5-2.6 2.2-4.2 1.4-.3-.1-.5-.3-.7-.5l2.7-5.4c.3.1.5.1.8.3 1.5.8 2.2 2.7 1.4 4.2"/></g><g class="st4"><defs><path id="SVGID_37_" d="M351.8 265.1h35V323h-35z"/></defs><clipPath id="SVGID_38_"><use xlink:href="#SVGID_37_" overflow="visible"/></clipPath><path class="st33" d="M373.9 265.1h-8.2c-3.3 0-6.4 1.3-8.7 3.4-3.2 2.3-5.4 6.1-5.4 10.4v31.3c0 7.1 5.8 12.8 12.8 12.8h8.2c3.3 0 6.4-1.3 8.7-3.4 3.2-2.3 5.4-6.1 5.4-10.4V278c.1-7.1-5.7-12.9-12.8-12.9"/></g><path class="st34" d="M185.1 119c1.7 1.3 4.2 1 5.5-.8l12.7-16.7-6.3-4.8-12.7 16.7c-1.3 1.8-1 4.3.8 5.6"/><path transform="rotate(-52.728 200.598 97.811)" class="st25" d="M189.8 91.6h21.6v12.3h-21.6z"/><path class="st22" d="M244.6 87.9c-9.7 12.7-27.9 15.2-40.6 5.5-12.7-9.7-15.2-27.9-5.5-40.6 4.2-5.6 10.1-9.2 16.4-10.7 8.2-1.9 17.1-.3 24.3 5.1 7.2 5.5 11.1 13.6 11.4 22 .2 6.5-1.8 13.1-6 18.7"/><path class="st23" d="M236.9 82c-6.5 8.5-18.6 10.1-27.1 3.7-8.5-6.5-10.1-18.6-3.7-27.1 6.5-8.5 18.6-10.1 27.1-3.7 8.5 6.5 10.2 18.6 3.7 27.1"/><path class="st35" d="M233.1 79.1c-4.9 6.4-14 7.6-20.4 2.8-6.4-4.9-7.6-14-2.8-20.4 4.9-6.4 14-7.6 20.4-2.8 6.5 4.9 7.7 14 2.8 20.4"/><path class="st25" d="M230.1 76.8c-3.6 4.7-10.3 5.6-15 2-4.7-3.6-5.6-10.3-2-15 3.6-4.7 10.3-5.6 15-2 4.6 3.6 5.6 10.3 2 15"/><path class="st13" d="M227.6 74.9c-2.5 3.3-7.3 4-10.7 1.4-3.3-2.5-4-7.3-1.4-10.7 2.5-3.3 7.3-4 10.7-1.4 3.3 2.6 3.9 7.4 1.4 10.7"/><path class="st35" d="M224.3 72.4c-1.2 1.5-3.3 1.8-4.9.7-1.5-1.2-1.8-3.3-.7-4.9 1.2-1.5 3.3-1.8 4.9-.7 1.6 1.2 1.9 3.4.7 4.9"/><path class="st36" d="M219.4 73.1c-1.5-1.2-1.8-3.3-.7-4.8 1.2-1.5 3.3-1.8 4.8-.7 1.5 1.2 1.8 3.3.7 4.9-1.1 1.4-3.2 1.7-4.8.6"/><path class="st16" d="M250.5 69.2c-3.4.4-6.4-10.7-15-17.3-8.6-6.6-20.1-6.5-20.6-9.9 8.2-1.9 17.1-.3 24.3 5.1 7.1 5.6 11 13.8 11.3 22.1"/><g class="st37"><defs><path id="SVGID_39_" d="M219.4 68.1h2.1v2.1h-2.1z"/></defs><clipPath id="SVGID_40_"><use xlink:href="#SVGID_39_" overflow="visible"/></clipPath><path class="st38" d="M221.3 69.8c-.4.5-1 .6-1.5.2-.5-.4-.6-1-.2-1.5.4-.5 1-.6 1.5-.2.5.3.6 1 .2 1.5"/></g><path class="st25" d="M168.5 112c-.8-2.3.3-4.8 2.6-5.6l21.6-8 3 8.2-21.6 8c-2.3.9-4.8-.3-5.6-2.6"/><path class="st25" d="M195.7 132.8c2.4.2 4.5-1.6 4.7-4l1.9-22.9-8.7-.7-1.9 22.9c-.1 2.4 1.6 4.5 4 4.7"/><g class="st4"><defs><path id="SVGID_41_" d="M286.5 34.8h90.2v87.8h-90.2z"/></defs><clipPath id="SVGID_42_"><use xlink:href="#SVGID_41_" overflow="visible"/></clipPath><path class="st39" d="M290.3 105.7c-1.9 1.1-2.6 3.5-1.6 5.4l1.4 2.5c1.1 1.9 3.5 2.6 5.4 1.5l2.8-1.6-5.2-9.4-2.8 1.6z"/><path class="st39" d="M376.1 66l-1.3-2.3c-1.1-2-3.6-2.7-5.5-1.6l-2.7 1.5 4.9 8.9-9.2-16.7-1 .5c-6-8.9-15.3-15.3-25.4-18-.1-1.9-1.7-3.5-3.7-3.6-8.4-.4-17 1.5-24.7 5.5-7.8 3.9-14.3 9.7-19 16.8-1.1 1.7-.7 3.9.8 5.1-4 10.5-3.9 22.9.8 33.5l-1.3.7 13.8 25 5.6-3.1 1.3 2.4c1 1.9 3.4 2.5 5.2 1.5l8.1-4.5c1.9-1 2.5-3.4 1.5-5.2L311 88.2l.2-.1-.2.1-3-5.4c-1-1.9-3.4-2.5-5.2-1.5l-8.1 4.5c-1.9 1-2.5 3.4-1.5 5.2l3 5.4-1.7-3.1-.9.5c-4.3-9.8-4.2-21.4-.3-31.1.7-.3 1.2-.8 1.7-1.4 3.9-5.9 9.5-10.8 16.1-14.2 6.6-3.3 13.8-4.9 20.9-4.6.7 0 1.3-.1 1.9-.4.1-.1.2-.1.4-.2 9.4 2.3 18.2 8.2 23.8 16.4l-1.3.7-1.3-2.4c-1-1.9-3.4-2.5-5.2-1.5l-8.1 4.5c-1.9 1-2.5 3.4-1.5 5.2l16.4 29.7c1 1.9 3.4 2.5 5.2 1.5l8.1-4.5c1.9-1 2.5-3.4 1.5-5.2L363.5 71l7.1 12.9 5.6-3.1-4.3-7.8 2.7-1.5c1.9-1 2.6-3.5 1.5-5.5m-80 30.3l4.9 8.9-4.9-8.9z"/></g><g class="st4"><defs><path id="SVGID_43_" d="M10.4 225.4h88.5v82.2H10.4z"/></defs><clipPath id="SVGID_44_"><use xlink:href="#SVGID_43_" overflow="visible"/></clipPath><path class="st40" d="M97.4 261.8l-56.9-35.9c-1.6-1-3.6-.5-4.6 1l-25 39.6c-1 1.6-.5 3.6 1 4.6L68.8 307c1.6 1 3.6.5 4.6-1l14-22.1 4.1-6.5 7-11.1c.9-1.5.4-3.6-1.1-4.5"/></g><path class="st18" d="M352.9 309c0 7.1 5.8 12.8 12.8 12.8h8.2c7.1 0 12.8-5.8 12.8-12.8v-31.3c0-7.1-5.8-12.8-12.8-12.8h-8.2c-7.1 0-12.8 5.8-12.8 12.8V309z"/><path class="st41" d="M354 308.1c0 7.1 5.8 12.8 12.8 12.8h8.2c7.1 0 12.8-5.8 12.8-12.8v-31.3c0-7.1-5.8-12.8-12.8-12.8h-8.2c-7.1 0-12.8 5.8-12.8 12.8v31.3z"/><path class="st23" d="M367.2 277.7c0 2.1 1.7 3.7 3.7 3.7s3.7-1.7 3.7-3.7c0-2.1-1.7-3.7-3.7-3.7s-3.7 1.7-3.7 3.7"/><path class="st42" d="M166.3 396.4h-.2l-12.9-6.5c-.7-.3-1.5-.1-1.9.6l-7.2 14.4c-.3.7-.1 1.5.6 1.9 0 0 6.5 3.2 13.1 6.6l8.5-17z"/><path transform="rotate(-63.327 153.623 405.146)" class="st23" d="M153.1 397.8h1.1v14.8h-1.1z"/><path transform="rotate(-63.327 152.675 407.034)" class="st23" d="M152.1 399.7h1.1v14.8h-1.1z"/><path transform="rotate(-63.327 154.56 403.28)" class="st23" d="M154 395.9h1.1v14.8H154z"/><path transform="rotate(-63.327 155.497 401.416)" class="st23" d="M154.9 394h1.1v14.8h-1.1z"/><path transform="rotate(-63.327 156.434 399.55)" class="st23" d="M155.9 392.2h1.1V407h-1.1z"/><path transform="rotate(-63.332 157.362 397.696)" class="st23" d="M156.8 390.3h1.1v14.8h-1.1z"/><path transform="rotate(-63.345 158.301 395.833)" class="st23" d="M157.7 388.5h1.1v14.8h-1.1z"/><path class="st16" d="M208.2 422.4c-.3-.1-.5-.2-.8-.3l1.2-2.3c1.1-2.1.2-4.7-1.9-5.8l-41.1-20.7-10.7 21.2 41.1 20.7c2.1 1.1 4.7.2 5.8-1.9l1.2-2.3c.2.2.5.3.7.4 2.5 1.3 5.5.2 6.8-2.3 1.2-2.4.2-5.4-2.3-6.7m-3.7 7.3c-.3-.1-.5-.3-.7-.5l2.7-5.4c.3.1.5.1.8.3 1.5.8 2.2 2.6 1.4 4.2-.8 1.6-2.7 2.2-4.2 1.4"/><path transform="rotate(-63.314 160.263 404.02)" class="st42" d="M148 403.2h24.5v1.7H148z"/><path class="st22" d="M97.5 262.3l-25 39.6c-1 1.6-3 2-4.6 1L11 267.1c-1.6-1-2-3-1-4.6l25-39.6c1-1.6 3-2 4.6-1l56.9 35.9c1.5.9 2 3 1 4.5"/><path class="st23" d="M13.5 263.4c.5.3.7 1 .3 1.5-.3.5-1 .7-1.5.3-.5-.3-.7-1-.3-1.5.3-.5 1-.7 1.5-.3m25-39.6c.5.3.7 1 .3 1.5-.3.5-1 .7-1.5.3-.5-.3-.7-1-.3-1.5.3-.5 1-.6 1.5-.3M69.9 299c.5.3.7 1 .3 1.5-.3.5-1 .7-1.5.3-.5-.3-.7-1-.3-1.5.3-.5 1-.7 1.5-.3m25-39.6c.5.3.7 1 .3 1.5-.3.5-1 .7-1.5.3-.5-.3-.7-1-.3-1.5.3-.5 1-.6 1.5-.3"/><path transform="rotate(-57.744 87.038 275.674)" class="st25" d="M83.2 273.9h7.6v3.5h-7.6z"/><path class="st36" d="M86.8 272.7l2.1 1.3.3-.5-2.1-1.3-.3.5zm1.4 2.5l.3-.5-2.1-1.3-.3.5 2.1 1.3zm-.8 1.1l.3-.5-2.1-1.3-.3.5 2.1 1.3zm-.7 1.2l.3-.6-2.1-1.3-.3.6 2.1 1.3zm-.7 1.1l.3-.5-2.1-1.3-.3.6 2.1 1.2z"/><path class="st23" d="M59.8 238.4c11 6.9 14.3 21.4 7.3 32.4-6.9 11-21.4 14.3-32.4 7.3-11-6.9-14.3-21.4-7.3-32.4 6.9-10.9 21.4-14.2 32.4-7.3"/><path class="st41" d="M54.5 254.7c2 4 .4 8.9-3.6 10.9S42 266 40 262s-.4-8.9 3.6-10.9c4-2.1 8.9-.5 10.9 3.6"/><path class="st36" d="M53.9 255c1.8 3.6.4 8.1-3.3 9.9-3.6 1.8-8.1.4-9.9-3.3-1.8-3.6-.3-8.1 3.3-9.9 3.6-1.8 8-.3 9.9 3.3"/><path class="st41" d="M50.7 256.6c1 1.9.2 4.3-1.7 5.2-1.9 1-4.3.2-5.2-1.7-1-1.9-.2-4.3 1.7-5.2 1.9-1 4.3-.3 5.2 1.7m-7.9 3.9c.2.4 0 .8-.3 1-.4.2-.8 0-1-.3-.2-.4 0-.8.3-1 .3-.2.8 0 1 .3m10.3-5.1c.2.4 0 .8-.3 1-.4.2-.8 0-1-.3-.2-.4 0-.8.3-1 .3-.2.8-.1 1 .3m-3.6 7.4c.4-.2.8 0 1 .3.2.4 0 .8-.3 1-.4.2-.8 0-1-.3-.2-.4-.1-.8.3-1m-5.2-10.3c.4-.2.8 0 1 .3.2.4 0 .8-.3 1s-.8 0-1-.3c-.2-.4 0-.8.3-1"/><path class="st24" d="M344.1 64.9l16.1-8.8zm-35.6-28.7l-2.3 1.3C287.1 48 281.5 74.6 292 93.6l19.4-10.7-16.1 8.9c-9.5-17.2-4.6-41.4 12.6-50.9l2.3-1.3c17.2-9.5 40.3-.7 49.8 16.5l3.4-1.9c-10.4-19.1-35.8-28.5-54.9-18"/><path transform="rotate(-28.872 298.873 102.131)" class="st43" d="M295.6 87.9h6.4v28.5h-6.4z"/><path class="st44" d="M295.8 110l2.8-1.6-5.2-9.4-2.8 1.6c-1.9 1.1-2.6 3.5-1.6 5.4l1.4 2.5c1.1 1.8 3.5 2.5 5.4 1.5"/><path class="st23" d="M324.7 107.3c1 1.9.3 4.2-1.5 5.2l-8.1 4.5c-1.9 1-4.2.4-5.2-1.5l-16.4-29.7c-1-1.9-.4-4.2 1.5-5.2l8.1-4.5c1.9-1 4.2-.3 5.2 1.5l16.4 29.7z"/><path transform="rotate(-28.872 366.78 64.678)" class="st43" d="M363.5 50.4h6.4v28.5h-6.4z"/><path class="st44" d="M374.9 66.4l-2.7 1.5-5.2-9.4 2.7-1.5c2-1.1 4.4-.4 5.5 1.6l1.3 2.3c1.1 1.9.3 4.4-1.6 5.5"/><path class="st23" d="M357.3 89.3c1 1.9 3.4 2.5 5.2 1.5l8.1-4.5c1.9-1 2.5-3.4 1.5-5.2l-16.4-29.7c-1-1.9-3.4-2.5-5.2-1.5l-8.1 4.5c-1.9 1-2.5 3.4-1.5 5.2l16.4 29.7z"/><path class="st45" d="M334.2 36.9c-.6.3-1.2.4-1.9.4-7.1-.3-14.4 1.3-20.9 4.6-6.6 3.3-12.1 8.2-16.1 14.2-1.2 1.8-3.6 2.3-5.3 1.1-1.8-1.2-2.3-3.6-1.1-5.3 4.7-7 11.3-12.8 19-16.8 7.8-3.9 16.3-5.8 24.7-5.5 2.1.1 3.8 1.9 3.7 4-.1 1.5-.9 2.7-2.1 3.3"/><path class="st41" d="M357 228.6c-1.2 3.9-5.4 6-9.2 4.8l-34-10.8c-3.9-1.2-6-5.4-4.8-9.2l28-88.6c1.2-3.9 5.3-6 9.2-4.8l34 10.8c3.9 1.2 6 5.3 4.8 9.2l-28 88.6z"/><path transform="rotate(-72.453 347.442 175.355)" class="st22" d="M308.7 153h77.5v44.7h-77.5z"/><path class="st16" d="M355.9 203.3c-.2.7-.9 1-1.6.8l-30.2-9.5c-.7-.2-1-.9-.8-1.6.2-.7.9-1 1.6-.8l30.2 9.5c.6.3 1 1 .8 1.6m-1.4 4.5c-.2.7-.9 1-1.6.8l-30.2-9.5c-.7-.2-1-.9-.8-1.6.2-.7.9-1 1.6-.8l30.2 9.5c.6.2 1 .9.8 1.6m2.9-9.1c-.2.7-.9 1-1.6.8l-30.2-9.5c-.7-.2-1-.9-.8-1.6.2-.7.9-1 1.6-.8l30.2 9.5c.6.2 1 .9.8 1.6"/><path class="st46" d="M365.6 172.7c-.2.7-.9 1-1.6.8l-30.2-9.5c-.7-.2-1-.9-.8-1.6.2-.7.9-1 1.6-.8l30.2 9.5c.6.3 1 1 .8 1.6m-1.4 4.4c-.2.7-.9 1-1.6.8l-30.2-9.5c-.7-.2-1-.9-.8-1.6.2-.7.9-1 1.6-.8l30.2 9.5c.6.3 1 1 .8 1.6m2.8-9c-.2.7-.9 1-1.6.8l-30.2-9.5c-.7-.2-1-.9-.8-1.6.2-.7.9-1 1.6-.8l30.2 9.5c.7.2 1 .9.8 1.6"/><path class="st23" d="M354.9 192.9l-24.7-7.8c-1.5-.5-2.4-2.1-1.9-3.6l2.3-7.2c.5-1.5 2.1-2.4 3.6-1.9l24.7 7.8c1.5.5 2.4 2.1 1.9 3.6l-2.3 7.2c-.5 1.5-2.1 2.4-3.6 1.9m-5.8-35l-10.1-3.2c-1.1-.4-1.8-1.6-1.4-2.7l3.2-10.1c.4-1.1 1.6-1.8 2.7-1.4l10.1 3.2c1.1.4 1.8 1.6 1.4 2.7l-3.2 10.1c-.3 1.1-1.5 1.8-2.7 1.4m16 5.1l-10.1-3.2c-1.1-.4-1.8-1.6-1.4-2.7l3.2-10.1c.4-1.1 1.6-1.8 2.7-1.4l10.1 3.2c1.1.4 1.8 1.6 1.4 2.7l-3.2 10.1c-.3 1.1-1.5 1.7-2.7 1.4"/><path class="st25" d="M337.6 222.1c-.8 2.5-3.4 3.8-5.9 3-2.5-.8-3.8-3.4-3-5.9.8-2.5 3.4-3.8 5.9-3s3.7 3.5 3 5.9"/><path class="st23" d="M426.4 83.4c-1.8-.8-2.7-2.9-1.9-4.7l9.2-22c.8-1.8 2.9-2.7 4.7-1.9 1.8.8 2.7 2.9 1.9 4.7l-9.2 22c-.8 1.8-2.9 2.7-4.7 1.9"/><path class="st23" d="M418.6 63.4c.8-1.8 2.9-2.7 4.7-1.9l22 9.2c1.8.8 2.7 2.9 1.9 4.7-.8 1.8-2.9 2.7-4.7 1.9l-22-9.2c-1.8-.8-2.7-2.9-1.9-4.7M22.7 460.7c-1.4-.6-2-2.2-1.4-3.5l6.9-16.6c.6-1.4 2.2-2 3.5-1.4 1.4.6 2 2.2 1.4 3.5l-6.9 16.6c-.6 1.3-2.1 2-3.5 1.4"/><path class="st23" d="M16.8 445.6c.6-1.4 2.2-2 3.5-1.4l16.6 6.9c1.4.6 2 2.2 1.4 3.5-.6 1.4-2.2 2-3.5 1.4l-16.6-6.9c-1.3-.6-2-2.1-1.4-3.5M432 408.4c-1 .6-2.3.3-3-.7l-7.5-12.3c-.6-1-.3-2.3.7-3 1-.6 2.3-.3 3 .7l7.5 12.3c.6 1 .3 2.3-.7 3"/><path class="st23" d="M419.4 405.1c-.6-1-.3-2.3.7-3l12.3-7.5c1-.6 2.3-.3 3 .7.6 1 .3 2.3-.7 3l-12.3 7.5c-1.1.6-2.4.3-3-.7"/><path class="st16" d="M242 6.4s10.7 1.5 13.5 7.6c2.9 6.1 8.1 2.9 12.8 2.6 4.8-.3 9 7.4 9 12.3l-5.9 2.5s-1-8.7-7.4-7.9c-6.4.8-12.8 2.4-14.7-6-1.9-8.4-11.6-5.1-11.6-5.1l4.3-6z"/><path class="st16" d="M227.4 4.3L241.5 20l6.6-20zm103.5 406.1s-6.4 8.7-13.2 8.2c-6.7-.5-6.4 5.7-8.5 10-2 4.3-10.8 4.4-15.2 2l.7-6.4s8.1 3.4 10.4-2.7c2.4-6 4.1-12.4 12.4-10 8.3 2.4 10.1-7.8 10.1-7.8l3.3 6.7z"/><path class="st16" d="M339.8 398.6l-20.6 4.7 14.4 15.4zM5.7 222.8s-2.5-6.8.2-10.4c2.7-3.6-.9-5.7-2.5-8.4-1.7-2.7 1.5-7.7 4.4-9.3l3.4 2.7s-4.8 3.3-2.3 6.9c2.5 3.5 5.5 6.8 1.1 10.6s.7 8.5.7 8.5l-5-.6z"/><path class="st16" d="M9.1 232.1l4.8-13.3L0 221.2z"/><path class="st17" d="M424.9 315.3c0 3-2.4 5.4-5.4 5.4-3 0-5.4-2.4-5.4-5.4s2.4-5.4 5.4-5.4c3 0 5.4 2.4 5.4 5.4M62.6 81.9c0 3-2.4 5.4-5.4 5.4-3 0-5.4-2.4-5.4-5.4 0-3 2.4-5.4 5.4-5.4 2.9 0 5.4 2.5 5.4 5.4m329 34.5c0 1.5-1.2 2.7-2.7 2.7-1.5 0-2.7-1.2-2.7-2.7 0-1.5 1.2-2.7 2.7-2.7 1.5 0 2.7 1.2 2.7 2.7m2.7-77.9c0 2.1-1.7 3.8-3.8 3.8-2.1 0-3.8-1.7-3.8-3.8 0-2.1 1.7-3.8 3.8-3.8 2.2.1 3.8 1.7 3.8 3.8M255.1 428.9c0 3.2-2.6 5.7-5.7 5.7s-5.7-2.6-5.7-5.7c0-3.2 2.6-5.7 5.7-5.7s5.7 2.6 5.7 5.7"/></g></svg>