<?xml version="1.0" encoding="utf-8"?>
<!-- Generator: Adobe Illustrator 19.2.0, SVG Export Plug-In . SVG Version: 6.00 Build 0)  -->
<svg version="1.1" id="Слой_2" xmlns="http://www.w3.org/2000/svg" xmlns:xlink="http://www.w3.org/1999/xlink" x="0px" y="0px"
	 viewBox="0 0 551 551" style="enable-background:new 0 0 551 551;" xml:space="preserve">
<style type="text/css">
	.st0{fill:#4F7DF0;}
	.st1{fill:#C4D3D7;}
	.st2{fill:#FFFFFF;}
	.st3{fill:#EC007B;}
	.st4{fill:#ADB9D6;}
	.st5{fill:#E1E0FE;}
	.st6{fill:#466EEF;}
	.st7{fill:#D0007B;}
	.st8{fill:#FEC240;}
</style>
<g>
	<path class="st0" d="M216,318.4l-21.3,21.3l6.3,6.3l21.3-21.3L216,318.4 M339.8,194.6l-20.1,20.1l6.3,6.3l20.1-20.1L339.8,194.6"/>
	<path class="st1" d="M201.4,114.7c-11.3,0-22.5,4.3-31.1,12.9l-41.5,41.5c-0.4,0.4-0.8,0.8-1.1,1.2c0.4-0.4,0.7-0.8,1.1-1.2
		l20.5-20.5c0,0,0,0,0,0l0,0c-0.3,0.3-22.5,22.9,20.4,69.7l0,0l76.7-76.7l-14-14C224,119,212.7,114.7,201.4,114.7"/>
	<path class="st2" d="M259,154l-76.8,76.8c52.9,52.9,146.3,146.3,146.4,146.4l76.8-76.8L326,221l-6.3-6.3L259,154"/>
	<polyline class="st1" points="405.4,300.5 405.4,300.5 328.6,377.3 328.6,377.3 384.3,408.3 384.6,408.5 427.7,365.4 405.4,300.5 	
		"/>
	<path class="st2" d="M444,442.7l36.1,36.1L444,442.7z"/>
	<path class="st2" d="M480.1,481.7c0.7,0,1.5-0.3,2-0.8c1.1-1.1,1.1-2.9,0-4L446,440.7c-1.1-1.1-2.9-1.1-4,0c-1.1,1.1-1.1,2.9,0,4
		l36.1,36.1C478.6,481.4,479.4,481.7,480.1,481.7z"/>
	<polyline class="st0" points="428.1,364.9 384.6,408.5 401.9,425.8 445,382.7 445.1,382.7 445.5,382.3 428.1,364.9 	"/>
	<path class="st1" d="M384,443.8L384,443.8l10.7,36.3L384,443.8 M445,382.7l-43.1,43.1l0,0l11.1,35.9l68.3-68.3L445,382.7L445,382.7
		L445,382.7"/>
	<polyline class="st0" points="481.4,393.5 481.4,393.5 413.1,461.8 413.1,461.8 424.9,473.6 406.6,492 394.7,480.1 406.6,492 
		493.2,405.4 481.4,393.5 	"/>
	
		<ellipse transform="matrix(0.7071 -0.7071 0.7071 0.7071 -197.9922 479.7447)" class="st3" cx="480.1" cy="478.9" rx="11.8" ry="11.8"/>
	<path class="st3" d="M146,263.4C146,263.4,146,263.4,146,263.4L146,263.4C146,263.4,146,263.4,146,263.4 M152.1,260.9
		C152.1,260.9,152.1,260.9,152.1,260.9C152.1,260.9,152.1,260.9,152.1,260.9 M139.9,260.9c1.7,1.6,3.9,2.4,6.1,2.4
		C143.8,263.4,141.6,262.6,139.9,260.9 M152.2,260.9C152.1,260.9,152.1,260.9,152.2,260.9C152.1,260.9,152.1,260.9,152.2,260.9
		 M152.2,260.8C152.2,260.8,152.2,260.9,152.2,260.8C152.2,260.9,152.2,260.8,152.2,260.8 M155.3,257.8l-3,3c0,0,0,0,0,0
		c0,0,0,0,0,0L155.3,257.8L155.3,257.8 M137.2,254.5L137.2,254.5c0,2.3,0.9,4.5,2.6,6.2c0,0,0,0,0.1,0.1c0,0,0,0-0.1-0.1
		C138,259.1,137.2,256.8,137.2,254.5 M255.8,135.9c-2.3,0-4.5,0.9-6.2,2.6l-3,3l-76.7,76.7c1.9,2.1,3.9,4.2,6.1,6.4
		c2,2,4.1,4.1,6.2,6.2L259,154l3-3c1.7-1.7,2.6-4,2.6-6.2c0-2.3-0.9-4.5-2.6-6.2C260.3,136.8,258,135.9,255.8,135.9"/>
	<path class="st1" d="M319.9,248.5c0.7,0,1.5-0.3,2-0.8c1.1-1.1,1.1-2.9,0-4l-63.1-63.1c-1.1-1.1-2.9-1.1-4,0c-1.1,1.1-1.1,2.9,0,4
		l63.1,63.1C318.4,248.3,319.2,248.5,319.9,248.5z"/>
	<polyline class="st4" points="149.4,148.6 149.4,148.6 149.4,148.6 	"/>
	<path class="st5" d="M127.7,170.3c-16,17.2-15.7,44.1,1,60.9C112,214.4,111.7,187.5,127.7,170.3"/>
	<path class="st4" d="M149.4,148.6l-20.5,20.5c-0.4,0.4-0.8,0.8-1.1,1.2c-16,17.2-15.7,44.1,1,60.9c0.1,0.1,0.1,0.1,0.2,0.2l14,14
		l27-27l0,0C126.8,171.5,149.1,148.9,149.4,148.6"/>
	<path class="st5" d="M366.6,426.4l-0.4,0.4l17.4,17.4l0.4-0.4l0-0.1L366.6,426.4 M384.6,408.5l-17.9,17.9L384.6,408.5L384.6,408.5
		 M222.3,324.7L222.3,324.7l79.5,79.5L222.3,324.7 M155.3,257.8L155.3,257.8l60.7,60.7l0,0L155.3,257.8"/>
	<polyline class="st6" points="216,318.4 216,318.4 222.3,324.7 222.3,324.7 216,318.4 	"/>
	<path class="st5" d="M182.2,230.9l-26.9,26.9l60.7,60.7l6.3,6.3l79.5,79.5l26.9-26.9C328.4,377.1,235,283.7,182.2,230.9"/>
	<polyline class="st4" points="328.6,377.3 301.7,404.2 366.6,426.4 384.6,408.5 384.3,408.3 328.6,377.3 328.6,377.3 	"/>
	<polyline class="st6" points="384.6,408.5 366.6,426.4 383.9,443.7 401.9,425.8 384.6,408.5 	"/>
	<polyline class="st4" points="401.9,425.8 383.9,443.7 384,443.8 384,443.8 394.7,480.1 413.1,461.8 401.9,425.9 401.9,425.8 	"/>
	<polyline class="st6" points="413.1,461.8 394.7,480.1 406.6,492 424.9,473.6 413.1,461.8 	"/>
	<path class="st5" d="M146,263.4C146,263.4,146,263.4,146,263.4L146,263.4C146,263.4,146,263.4,146,263.4 M152.1,260.9
		c-1.7,1.6-3.9,2.4-6.1,2.4C148.2,263.4,150.4,262.6,152.1,260.9 M152.1,260.9C152.1,260.9,152.1,260.9,152.1,260.9
		C152.1,260.9,152.1,260.9,152.1,260.9 M152.2,260.9C152.2,260.9,152.2,260.9,152.2,260.9C152.2,260.9,152.2,260.9,152.2,260.9
		 M139.8,260.8C139.8,260.9,139.9,260.9,139.8,260.8C139.9,260.9,139.8,260.9,139.8,260.8 M152.2,260.8
		C152.2,260.8,152.2,260.8,152.2,260.8C152.2,260.8,152.2,260.8,152.2,260.8"/>
	<path class="st7" d="M169.8,218.3l-27,27l-3,3c-1.7,1.7-2.6,4-2.6,6.2c0,2.3,0.9,4.5,2.6,6.2c0,0,0,0,0.1,0.1c0,0,0.1,0.1,0.1,0.1
		c1.7,1.6,3.9,2.4,6.1,2.4c0,0,0,0,0,0c0,0,0,0,0,0c2.2,0,4.4-0.8,6.1-2.4c0,0,0,0,0,0c0,0,0,0,0,0c0,0,0,0,0,0c0,0,0,0,0,0
		c0,0,0,0,0,0c0,0,0,0,0,0c0,0,0,0,0,0l3-3l0,0l26.9-26.9c-2.2-2.2-4.2-4.2-6.2-6.2C173.7,222.5,171.7,220.3,169.8,218.3"/>
	
		<rect x="346.8" y="120.1" transform="matrix(0.7071 -0.7071 0.7071 0.7071 -38.8968 306.4513)" class="st0" width="7.2" height="160.2"/>
	
		<rect x="370.3" y="96.6" transform="matrix(0.7071 -0.7071 0.7071 0.7071 -15.4026 316.183)" class="st0" width="7.2" height="160.2"/>
	
		<rect x="393.8" y="73.1" transform="matrix(0.7071 -0.7071 0.7071 0.7071 8.0915 325.9146)" class="st0" width="7.2" height="160.2"/>
	
		<rect x="417.3" y="49.6" transform="matrix(0.7071 -0.7071 0.7071 0.7071 31.5957 335.6647)" class="st0" width="7.2" height="160.2"/>
	
		<rect x="440.8" y="26.1" transform="matrix(0.7071 -0.7071 0.7071 0.7071 55.0687 345.3593)" class="st0" width="7.2" height="160.2"/>
	
		<rect x="464.3" y="2.6" transform="matrix(0.7072 -0.707 0.707 0.7072 78.5355 355.0536)" class="st0" width="7.2" height="160.2"/>
	
		<rect x="487.8" y="-20.9" transform="matrix(0.7071 -0.7071 0.7071 0.7071 102.0688 364.8411)" class="st0" width="7.2" height="160.2"/>
	
		<rect x="263.6" y="72" transform="matrix(0.7071 -0.7071 0.7071 0.7071 53.9915 281.5548)" class="st0" width="206.6" height="7.2"/>
	
		<rect x="285.3" y="93.7" transform="matrix(0.7071 -0.7071 0.7071 0.7071 45.0006 303.26)" class="st0" width="206.6" height="7.2"/>
	
		<rect x="307" y="115.4" transform="matrix(0.7071 -0.7071 0.7071 0.7071 36.0002 324.9476)" class="st0" width="206.6" height="7.2"/>
	
		<rect x="328.7" y="137.1" transform="matrix(0.7071 -0.7071 0.7071 0.7071 27.0097 346.6518)" class="st0" width="206.6" height="7.2"/>
	
		<rect x="350.4" y="158.8" transform="matrix(0.7071 -0.7071 0.7071 0.7071 18.0187 368.3553)" class="st0" width="206.6" height="7.2"/>
	
		<rect x="372.1" y="180.5" transform="matrix(0.7071 -0.7071 0.7071 0.7071 9.0383 390.0815)" class="st0" width="206.6" height="7.2"/>
	
		<rect x="55.6" y="411.3" transform="matrix(0.7071 -0.7071 0.7071 0.7071 -330.1406 185.7894)" class="st0" width="7.2" height="160.2"/>
	
		<rect x="79.1" y="387.8" transform="matrix(0.7071 -0.7071 0.7071 0.7071 -306.661 195.5397)" class="st0" width="7.2" height="160.2"/>
	
		<rect x="102.6" y="364.3" transform="matrix(0.7071 -0.7071 0.7071 0.7071 -283.1668 205.2714)" class="st0" width="7.2" height="160.2"/>
	
		<rect x="126.1" y="340.8" transform="matrix(0.7071 -0.7071 0.7071 0.7071 -259.6727 215.0029)" class="st0" width="7.2" height="160.2"/>
	
		<rect x="149.6" y="317.3" transform="matrix(0.7071 -0.7071 0.7071 0.7071 -236.1701 224.716)" class="st0" width="7.2" height="160.2"/>
	
		<rect x="173.1" y="293.8" transform="matrix(0.7071 -0.7071 0.7071 0.7071 -212.6775 234.4477)" class="st0" width="7.2" height="160.2"/>
	
		<rect x="196.6" y="270.4" transform="matrix(0.7071 -0.7071 0.7071 0.7071 -189.1849 244.1796)" class="st0" width="7.2" height="160.2"/>
	
		<rect x="-27.7" y="363.2" transform="matrix(0.7071 -0.7071 0.7071 0.7071 -237.267 160.9115)" class="st0" width="206.6" height="7.2"/>
	
		<rect x="-6" y="384.9" transform="matrix(0.7071 -0.7071 0.7071 0.7071 -246.258 182.6172)" class="st0" width="206.6" height="7.2"/>
	
		<rect x="15.7" y="406.7" transform="matrix(0.7072 -0.707 0.707 0.7072 -255.2288 204.2865)" class="st0" width="206.6" height="7.2"/>
	
		<rect x="37.4" y="428.4" transform="matrix(0.7071 -0.7071 0.7071 0.7071 -264.239 226.0277)" class="st0" width="206.6" height="7.2"/>
	
		<rect x="59.1" y="450.1" transform="matrix(0.7071 -0.7071 0.7071 0.7071 -273.2394 247.7534)" class="st0" width="206.6" height="7.2"/>
	
		<rect x="80.8" y="471.8" transform="matrix(0.7071 -0.7071 0.7071 0.7071 -282.2107 269.416)" class="st0" width="206.6" height="7.2"/>
	<circle class="st0" cx="88.4" cy="86.8" r="6"/>
	<circle class="st0" cx="513.3" cy="235.9" r="6"/>
	<circle class="st8" cx="535" cy="361.7" r="6"/>
	<circle class="st8" cx="92.5" cy="291.3" r="6"/>
	<path class="st8" d="M280.5,67.2c0.3,0,0.6-0.1,0.8-0.3c0.4-0.4,0.4-1.2,0-1.6l-9-9c-0.4-0.4-1.2-0.4-1.6,0c-0.4,0.4-0.4,1.2,0,1.6
		l9,9C279.9,67.1,280.2,67.2,280.5,67.2z"/>
	<path class="st8" d="M271.6,67.2c0.3,0,0.6-0.1,0.8-0.3l9-9c0.4-0.4,0.4-1.2,0-1.6c-0.4-0.4-1.2-0.4-1.6,0l-9,9
		c-0.4,0.4-0.4,1.2,0,1.6C271,67.1,271.3,67.2,271.6,67.2z"/>
	<path class="st0" d="M301.4,509.3c0.3,0,0.6-0.1,0.8-0.3c0.4-0.4,0.4-1.2,0-1.6l-9-9c-0.4-0.4-1.2-0.4-1.6,0
		c-0.4,0.4-0.4,1.2,0,1.6l9,9C300.8,509.2,301.1,509.3,301.4,509.3z"/>
	<path class="st0" d="M292.5,509.3c0.3,0,0.6-0.1,0.8-0.3l9-9c0.4-0.4,0.4-1.2,0-1.6c-0.4-0.4-1.2-0.4-1.6,0l-9,9
		c-0.4,0.4-0.4,1.2,0,1.6C291.9,509.2,292.2,509.3,292.5,509.3z"/>
</g>
</svg>
