<svg enable-background="new 0 0 126.7 126.7" fill="#ca0078" version="1.1" viewBox="0 0 126.7 126.7" xml:space="preserve" xmlns="http://www.w3.org/2000/svg">
                <path d="m121.2 44.2l-34.9-3.3c-2.2-0.2-4.1-1.6-5-3.7l-12.5-30.3c-2-5-9.1-5-11.1 0l-12.4 30.3c-0.8 2.1-2.8 3.5-5 3.7l-34.9 3.3c-5.2 0.5-7.3 7-3.4 10.5l26.3 23.1c1.7 1.5 2.4 3.7 1.9 5.9l-7.9 32.4c-1.2 5.1 4.3 9.3 8.9 6.6l29.1-17.1c1.9-1.1 4.2-1.1 6.1 0l29.1 17.1c4.6 2.7 10.1-1.4 8.9-6.6l-7.8-32.4c-0.5-2.2 0.2-4.4 1.9-5.9l26.3-23.1c3.8-3.5 1.6-10-3.6-10.5z"></path>
              </svg>