<svg version="1.1" id="Слой_2" xmlns="http://www.w3.org/2000/svg" x="0" y="0" viewBox="0 0 551 551" xml:space="preserve"><style>.st0{fill:#4f7df0}.st1{fill:#c4d3d7}.st2{fill:#fff}.st3{fill:#ec007b}.st4{fill:#adb9d6}.st5{fill:#e1e0fe}.st6{fill:#466eef}.st8{fill:#fec240}</style><path class="st0" d="M216 318.4l-21.3 21.3 6.3 6.3 21.3-21.3-6.3-6.3m123.8-123.8l-20.1 20.1 6.3 6.3 20.1-20.1-6.3-6.3"/><path class="st1" d="M201.4 114.7c-11.3 0-22.5 4.3-31.1 12.9l-41.5 41.5c-.4.4-.8.8-1.1 1.2.4-.4.7-.8 1.1-1.2l20.5-20.5c-.3.3-22.5 22.9 20.4 69.7l76.7-76.7-14-14c-8.4-8.6-19.7-12.9-31-12.9"/><path class="st2" d="M259 154l-76.8 76.8 146.4 146.4 76.8-76.8L326 221l-6.3-6.3L259 154"/><path class="st1" d="M405.4 300.5l-76.8 76.8 55.7 31 .3.2 43.1-43.1-22.3-64.9"/><path class="st2" d="M444 442.7l36.1 36.1-36.1-36.1zm36.1 39c.7 0 1.5-.3 2-.8 1.1-1.1 1.1-2.9 0-4L446 440.7c-1.1-1.1-2.9-1.1-4 0s-1.1 2.9 0 4l36.1 36.1c.5.6 1.3.9 2 .9z"/><path class="st0" d="M428.1 364.9l-43.5 43.6 17.3 17.3 43.1-43.1h.1l.4-.4-17.4-17.4"/><path class="st1" d="M384 443.8l10.7 36.3-10.7-36.3m61-61.1l-43.1 43.1 11.1 35.9 68.3-68.3-36.3-10.7"/><path class="st0" d="M481.4 393.5l-68.3 68.3 11.8 11.8-18.3 18.4-11.9-11.9 11.9 11.9 86.6-86.6-11.8-11.9"/><ellipse transform="rotate(-45.001 480.104 478.878)" class="st3" cx="480.1" cy="478.9" rx="11.8" ry="11.8"/><path class="st3" d="M139.9 260.9c1.7 1.6 3.9 2.4 6.1 2.4-2.2.1-4.4-.7-6.1-2.4m12.3 0c-.1 0-.1 0 0 0-.1 0-.1 0 0 0m0-.1s0 .1 0 0c0 .1 0 0 0 0m3.1-3l-3 3 3-3m-18.1-3.3c0 2.3.9 4.5 2.6 6.2l.1.1-.1-.1c-1.8-1.6-2.6-3.9-2.6-6.2m118.6-118.6c-2.3 0-4.5.9-6.2 2.6l-3 3-76.7 76.7c1.9 2.1 3.9 4.2 6.1 6.4l6.2 6.2L259 154l3-3c1.7-1.7 2.6-4 2.6-6.2 0-2.3-.9-4.5-2.6-6.2-1.7-1.8-4-2.7-6.2-2.7"/><path class="st1" d="M319.9 248.5c.7 0 1.5-.3 2-.8 1.1-1.1 1.1-2.9 0-4l-63.1-63.1c-1.1-1.1-2.9-1.1-4 0s-1.1 2.9 0 4l63.1 63.1c.5.6 1.3.8 2 .8z"/><path class="st5" d="M127.7 170.3c-16 17.2-15.7 44.1 1 60.9-16.7-16.8-17-43.7-1-60.9"/><path class="st4" d="M149.4 148.6l-20.5 20.5c-.4.4-.8.8-1.1 1.2-16 17.2-15.7 44.1 1 60.9l.2.2 14 14 27-27c-43.2-46.9-20.9-69.5-20.6-69.8"/><path class="st5" d="M366.6 426.4l-.4.4 17.4 17.4.4-.4v-.1l-17.4-17.3m18-17.9l-17.9 17.9 17.9-17.9m-162.3-83.8l79.5 79.5-79.5-79.5m-67-66.9l60.7 60.7-60.7-60.7"/><path class="st6" d="M216 318.4l6.3 6.3-6.3-6.3"/><path class="st5" d="M182.2 230.9l-26.9 26.9 60.7 60.7 6.3 6.3 79.5 79.5 26.9-26.9-146.5-146.5"/><path class="st4" d="M328.6 377.3l-26.9 26.9 64.9 22.2 18-17.9-.3-.2-55.7-31"/><path class="st6" d="M384.6 408.5l-18 17.9 17.3 17.3 18-17.9-17.3-17.3"/><path class="st4" d="M401.9 425.8l-18 17.9.1.1 10.7 36.3 18.4-18.3-11.2-35.9v-.1"/><path class="st6" d="M413.1 461.8l-18.4 18.3 11.9 11.9 18.3-18.4-11.8-11.8"/><path class="st5" d="M152.1 260.9c-1.7 1.6-3.9 2.4-6.1 2.4 2.2.1 4.4-.7 6.1-2.4m-12.3-.1c0 .1.1.1 0 0 .1.1 0 .1 0 0m12.4 0"/><path d="M169.8 218.3l-27 27-3 3c-1.7 1.7-2.6 4-2.6 6.2 0 2.3.9 4.5 2.6 6.2l.1.1.1.1c1.7 1.6 3.9 2.4 6.1 2.4 2.2 0 4.4-.8 6.1-2.4l3-3 26.9-26.9-6.2-6.2c-2.2-2.3-4.2-4.5-6.1-6.5" fill="#d0007b"/><path transform="rotate(-45.001 350.47 200.183)" class="st0" d="M346.8 120.1h7.2v160.2h-7.2z"/><path transform="rotate(-45.001 373.965 176.69)" class="st0" d="M370.3 96.6h7.2v160.2h-7.2z"/><path transform="rotate(-45.001 397.46 153.195)" class="st0" d="M393.8 73.1h7.2v160.2h-7.2z"/><path transform="rotate(-45.001 420.982 129.698)" class="st0" d="M417.3 49.6h7.2v160.2h-7.2z"/><path transform="rotate(-45.001 444.42 106.212)" class="st0" d="M440.8 26.1h7.2v160.2h-7.2z"/><path transform="rotate(-44.992 467.942 82.713)" class="st0" d="M464.3 2.6h7.2v160.2h-7.2z"/><path transform="rotate(-45.001 491.438 59.219)" class="st0" d="M487.8-20.9h7.2v160.2h-7.2z"/><path transform="rotate(-45.001 366.863 75.609)" class="st0" d="M263.6 72h206.6v7.2H263.6z"/><path transform="rotate(-45.001 388.568 97.314)" class="st0" d="M285.3 93.7h206.6v7.2H285.3z"/><path transform="rotate(-45.001 410.247 119.023)" class="st0" d="M307 115.4h206.6v7.2H307z"/><path transform="rotate(-45.001 431.951 140.728)" class="st0" d="M328.7 137.1h206.6v7.2H328.7z"/><path transform="rotate(-45.001 453.654 162.433)" class="st0" d="M350.4 158.8H557v7.2H350.4z"/><path transform="rotate(-45.001 475.39 184.137)" class="st0" d="M372.1 180.5h206.6v7.2H372.1z"/><path transform="rotate(-45.001 59.192 491.413)" class="st0" d="M55.6 411.3h7.2v160.2h-7.2z"/><path transform="rotate(-45.001 82.702 467.946)" class="st0" d="M79.1 387.8h7.2V548h-7.2z"/><path transform="rotate(-45.001 106.196 444.452)" class="st0" d="M102.6 364.3h7.2v160.2h-7.2z"/><path transform="rotate(-45.001 129.69 420.958)" class="st0" d="M126.1 340.8h7.2V501h-7.2z"/><path transform="rotate(-45.001 153.167 397.444)" class="st0" d="M149.6 317.3h7.2v160.2h-7.2z"/><path transform="rotate(-45.001 176.661 373.952)" class="st0" d="M173.1 293.8h7.2V454h-7.2z"/><path transform="rotate(-45.001 200.155 350.46)" class="st0" d="M196.6 270.4h7.2v160.2h-7.2z"/><path transform="rotate(-45.001 75.6 366.865)" class="st0" d="M-27.7 363.2h206.6v7.2H-27.7z"/><path transform="rotate(-45.001 97.305 388.571)" class="st0" d="M-6 384.9h206.6v7.2H-6z"/><path transform="rotate(-44.992 119.026 410.297)" class="st0" d="M15.7 406.7h206.6v7.2H15.7z"/><path transform="rotate(-45.001 140.716 431.982)" class="st0" d="M37.4 428.4H244v7.2H37.4z"/><path transform="rotate(-45.001 162.44 453.71)" class="st0" d="M59.1 450.1h206.6v7.2H59.1z"/><path transform="rotate(-45.001 184.104 475.37)" class="st0" d="M80.8 471.8h206.6v7.2H80.8z"/><circle class="st0" cx="88.4" cy="86.8" r="6"/><circle class="st0" cx="513.3" cy="235.9" r="6"/><circle class="st8" cx="535" cy="361.7" r="6"/><circle class="st8" cx="92.5" cy="291.3" r="6"/><path class="st8" d="M280.5 67.2c.3 0 .6-.1.8-.3.4-.4.4-1.2 0-1.6l-9-9c-.4-.4-1.2-.4-1.6 0-.4.4-.4 1.2 0 1.6l9 9c.2.2.5.3.8.3z"/><path class="st8" d="M271.6 67.2c.3 0 .6-.1.8-.3l9-9c.4-.4.4-1.2 0-1.6-.4-.4-1.2-.4-1.6 0l-9 9c-.4.4-.4 1.2 0 1.6.2.2.5.3.8.3z"/><path class="st0" d="M301.4 509.3c.3 0 .6-.1.8-.3.4-.4.4-1.2 0-1.6l-9-9c-.4-.4-1.2-.4-1.6 0-.4.4-.4 1.2 0 1.6l9 9c.2.2.5.3.8.3z"/><path class="st0" d="M292.5 509.3c.3 0 .6-.1.8-.3l9-9c.4-.4.4-1.2 0-1.6-.4-.4-1.2-.4-1.6 0l-9 9c-.4.4-.4 1.2 0 1.6.2.2.5.3.8.3z"/></svg>