<svg version="1.1" id="Слой_1" xmlns="http://www.w3.org/2000/svg" xmlns:xlink="http://www.w3.org/1999/xlink" x="0" y="0" viewBox="0 0 1920 856.1" xml:space="preserve"><style>.st3,.st4{clip-path:url(#SVGID_2_);stroke:#fff;stroke-miterlimit:10}.st3{stroke-width:2;fill:none}.st4{fill:#fff}</style><defs><path id="SVGID_1_" d="M-1 6h1921v868H-1z"/></defs><clipPath id="SVGID_2_"><use xlink:href="#SVGID_1_" overflow="visible"/></clipPath><linearGradient id="SVGID_3_" gradientUnits="userSpaceOnUse" x1="-147.061" y1="196.951" x2="2042.178" y2="196.951"><stop offset="0" stop-color="#fff"/><stop offset=".484" stop-color="#f5f4fd"/><stop offset="1" stop-color="#f1f0fc"/></linearGradient><path d="M-34.1 700c31.8 23.6 555.4 201.8 892.3 122.5 427.6-100.7 866.7-417.5 1070.3-315.9 142.9 71.4 151.6-700.5 23.3-845.4C1778.3-534.7 165.2-431 53.9-319.1-108.3-156.2-257 534.5-34.1 700z" clip-path="url(#SVGID_2_)" fill="url(#SVGID_3_)"/><path d="M-40.1 680c31.8 23.6 555.4 201.8 892.3 122.5 427.6-100.7 866.7-417.5 1070.3-315.9C2065.4 558 1943-183 1943-183S111.3-323.9 0-212C-162.2-49-263 514.5-40.1 680z" clip-path="url(#SVGID_2_)" fill="#9ab7ff"/><linearGradient id="SVGID_4_" gradientUnits="userSpaceOnUse" x1="1293.377" y1="816.023" x2="508.826" y2="-542.86" gradientTransform="matrix(.9988 -.04824 .04824 .9988 -11.525 45.435)"><stop offset="0" stop-color="#75a8f9"/><stop offset=".168" stop-color="#6798f5"/><stop offset=".44" stop-color="#5585f0"/><stop offset=".715" stop-color="#4a79ed"/><stop offset="1" stop-color="#4775ec"/></linearGradient><path d="M-9 678.3c33.1 21.9 565.6 171.3 897.6 73.8 421.5-123.8 842.7-464.1 1051.6-373.6 103.7 44.9 47.9-290.7-1.2-561.5-20.3-111.9-1978-88-1968-13C-.7 16.1-23.7 668.6-9 678.3z" clip-path="url(#SVGID_2_)" fill="url(#SVGID_4_)"/><circle class="st3" cx="91" cy="450" r="7"/><circle class="st3" cx="1596" cy="50" r="7"/><circle class="st3" cx="1808" cy="122" r="7"/><circle class="st4" cx="1496" cy="304" r="7"/><circle class="st4" cx="1702" cy="225" r="7"/><circle class="st4" cx="117" cy="283" r="7"/><circle class="st4" cx="551" cy="173" r="7"/><circle class="st3" cx="319.5" cy="318.5" r="5.5"/><circle class="st3" cx="394.5" cy="93.5" r="5.5"/><circle class="st3" cx="1238.5" cy="105.5" r="5.5"/><circle class="st3" cx="119.5" cy="108.5" r="5.5"/><circle class="st4" cx="144" cy="624" r="7"/><circle class="st3" cx="1103.5" cy="44.5" r="5.5"/></svg>